<svg role="img" aria-label="IntelNav banner" width="800" height="400" viewBox="0 0 800 400" xmlns="http://www.w3.org/2000/svg"><g fill="#6366f1" stroke-opacity=".69581"><g stroke="#000" stroke-width=".54122">
<path d="m476.8 139.68c-7.995 6.8633-17.317 11.247-26.164 16.385-7.7035 4.4738-15.325 9.0464-22.361 14.564-7.8446 6.1511-16.849 10.308-25.826 14.483-6.4975 3.0214-12.975 6.0857-19.613 9.2018 1.3232 0.90144 2.8966 1.3221 3.3178 2.9949 0.27953 1.1099 0.16185 2.2406-0.2985 3.177-0.94563 1.9239-2.7862 2.5749-4.7598 2.2499-2.0153-0.3318-3.0536-3.1787-2.5282-6.2718-10.351 4.2587-21.376 6.5104-31.708 10.935-6.2175 2.6625-13.076 3.74-19.373 6.4204-4.3595 1.8558-8.6799 3.778-13.329 4.9726-10.192 2.6191-20.526 3.78-30.981 3.1205-5.2891-0.33361-10.37-1.8372-14.24-6.0738-2.128-2.3294-3.2605-5.0959-3.6753-7.9782-0.59855-4.1591-0.43213-8.3609 0.23521-12.607 1.6671-10.607 8.3003-18.79 13.019-27.909 0.82192-1.5884 1.9475-3.0232 2.4735-4.9412-1.032-0.77945-2.3419-1.2496-2.9949-2.5361-1.2999-2.5608-0.52679-6.4633 1.683-8.0047 1.9715-1.3751 6.0818-0.762 7.7306 1.5393 0.91953 1.2833 3.3842 1.3316 3.0057 3.385-0.286 1.5512-1.0905 3.0465-1.8556 4.4633-4.8365 8.9566-8.7331 18.305-11.572 28.072-0.99586 3.426-1.9936 6.9591-2.1825 10.487-0.27964 5.2212 5.9795 10.358 11.43 9.947 7.5361-0.56773 15.102-0.93749 22.559-2.1827 7.1501-1.194 14.23-2.8014 21.355-4.1565 3.2664-0.62134 6.5497-1.3339 9.8534-1.5285 3.2293-0.19017 6.1753-1.0296 9.025-2.4074 5.9235-2.8639 12.367-4.2555 18.494-6.5592 9.3745-3.5248 18.121-8.2457 26.904-12.987 8.7636-4.7313 17.847-8.8668 26.758-13.329 5.4802-2.7446 10.565-6.1688 15.61-9.618 9.1487-6.2557 18.696-11.879 27.982-17.908 8.3112-5.3953 16.058-11.598 23.625-18.006 0.6813-0.57691 1.3875-1.1487 2.1581-1.5904 1.142-0.65465 2.4366-1.6616 3.6389-0.35989 1.138 1.2321 0.30662 2.648-0.42097 3.7214-1.0028 1.4794-2.2309 2.8266-3.4838 4.1122-4.2723 4.3837-8.7147 8.5915-13.49 12.725z"/>
<path d="m438.2 137.85c1.9642-1.4446 3.7694-2.7799 6.0312-4.453-2.1642-0.24238-4.1051 0.17922-5.5108-1.3657-1.2614-1.3862-2.263-2.7948-2.1386-4.7672 0.15418-2.4434 2.3566-4.6894 4.9192-4.9954 3.8374-0.45828 4.8528 0.55306 7.2035 7.2004 1.1495 0.0855 1.7215-0.84265 2.4115-1.4786 1.6043-1.4788 3.3267-2.7493 5.3362-3.6311 1.0112-0.44375 2.0124-1.0761 2.8634 0.16716 0.81751 1.1942 0.77174 2.3034-0.38211 3.3551-3.3272 3.0328-6.7498 5.9783-9.884 9.2021-6.7287 6.9211-15.477 10.743-23.54 15.601-4.3306 2.6093-8.2777 5.7376-12.481 8.4991-7.9971 5.2544-17.018 8.5398-25.48 12.897-6.2955 3.2416-13.167 4.6376-19.696 7.0993-7.2952 2.7507-14.636 5.4637-22.055 7.8018-8.1231 2.5601-16.631 4.0681-25.196 1.8334-3.8583-1.0067-6.6715-3.3329-7.626-7.527-1.6903-7.4275 0.48869-14.012 4.1429-20.327 2.1625-3.7372 4.2931-7.4927 6.4379-11.24 1.1647-2.0352 3.3013-3.0742 6.3071-2.9758 0.72351 2.4514-0.96298 4.3133-1.9546 6.1067-3.6034 6.517-5.7859 13.516-7.6593 20.644-0.88373 3.3626 1.8413 6.6241 5.812 6.8079 5.6974 0.26374 11.272-0.85422 16.855-1.8041 3.1764-0.54053 6.3968-0.88634 9.527-1.6202 4.7576-1.1153 9.6469-1.2597 14.316-3.2885 6.3143-2.7434 13.207-4.265 19.234-7.6359 13.088-7.32 27.213-12.764 39.285-21.946 3.9877-3.0332 8.4929-5.3859 12.92-8.159z"/>
<path d="m370.12 106.08c-12.473 8.0829-25.978 13.988-38.196 22.113-9.1343 6.0735-18.211 12.23-26.179 19.845-0.19538 0.18669-0.36886 0.39666-0.56753 0.57951-1.5223 1.4013-3.3929 2.3522-4.9696 0.60678-1.5472-1.7127-0.25447-3.2977 1.2372-4.5693 8.4923-7.2389 16.908-14.569 25.474-21.719 6.6917-5.5858 14.644-9.066 22.363-12.936 10.447-5.2371 20.801-10.59 30.464-17.294 7.0201-4.8709 15.206-7.738 23.133-10.912 9.907-3.9667 19.887-7.7511 29.847-11.585 2.7412-1.0551 5.6877-0.83425 8.5318-1.0161 4.0393-0.25817 8.1084-0.0503 12.165-0.04239 1.1949 0.0012 2.3434 0.08656 3.0191 1.9812-30.542 7.2782-58.316 21.14-86.321 34.949z"/>
<path d="m532.69 77.472c-6.923 13.537-17.102 24.184-27.818 34.396-0.64107 0.61098-1.2957 1.0558-2.1357 0.48164-0.93062-0.63608-0.45186-1.5261-0.13117-2.1928 1.9038-3.9576 3.929-7.8568 5.8275-11.817 3.1854-6.6443 7.814-12.555 10.296-19.524 1.9822-5.5665-0.27288-10.62-3.2304-15.235-1.0669-1.6647-3.232-2.2564-5.2699-2.3051-8.0994-0.19368-16.266-0.71514-24.201 1.2375-4.7962 1.1802-9.8439 0.72832-14.513 2.8008-2.0603 0.91444-4.6132 0.66355-6.9121-0.06892-0.71208-0.22685-1.3522-0.5976-1.3825-1.4627-0.0262-0.74751 0.55963-1.0426 1.1027-1.3917 2.8438-1.8281 6.0514-2.7444 9.2656-3.5552 6.2425-1.5746 12.515-3.0358 18.791-4.4696 4.1794-0.9547 8.388-1.7818 12.584-2.6639 3.5159-0.73912 7.0335-1.4331 10.607-1.8905 4.1593-0.53251 8.09-0.0286 11.692 2.1113 6.4198 3.8135 9.7672 12.935 7.4342 20.046-0.58676 1.7885-1.2934 3.5377-2.0056 5.5025z"/>
<path d="m418.02 116.08c2.0502-0.74145 3.8362-0.0906 5.5185 0.35932 2.4645 0.659 3.0485 3.8911 1.4683 6.6162-2.423 4.1784-6.1603 7.0368-9.9895 9.7081-9.3092 6.4942-19.279 11.78-29.987 15.605-3.6305 1.297-7.3694 2.2658-11.203 2.6784-2.2996 0.24754-4.5528-0.18249-5.8006-2.4988-1.3348-2.4777 0.0286-4.5399 1.3395-6.4577 2.0094-2.94 4.8666-5.059 7.7063-7.1013 11.089-7.975 23.083-14.189 36.198-18.126 1.4501-0.43528 3.0108-0.50221 4.7497-0.78294z"/>
<path d="m465.32 121.5c0.49787-6.2947 2.5482-11.827 5.7564-16.978 1.0446-1.677 1.858-3.4966 2.8707-5.1952 2.013-3.3763 0.71764-6.4868-0.89894-9.4223-0.92329-1.6766-2.9004-1.9479-4.7241-2.1157-5.3642-0.49375-10.591 0.56447-15.784 1.6051-3.6865 0.73884-7.3533 0.48584-11.036 0.50755-0.72139 0.0047-1.4397-0.18387-1.8285-1.1477 1.2251-2.2299 3.7267-2.7492 5.8008-3.2546 7.6559-1.8654 15.271-3.9116 23.06-5.2657 3.8654-0.67202 7.4827-1.4328 11.32 0.09754 3.2942 1.3139 5.8507 4.5166 6.217 8.04 0.51989 5.0014-1.0479 9.3402-3.5751 13.527-2.2118 3.6641-5.3415 6.5511-7.9379 9.8833-0.65538 0.84108-1.2448 1.7335-2.0057 2.8002 3.557 1.6719 4.4073 4.5107 3.591 7.9022-0.48693 2.0233-3.4106 3.732-5.7864 3.6654-2.8972-0.0814-4.3587-1.7968-5.0394-4.6487z"/>
<path d="m419.71 105.44c-11.176 3.109-21.955 6.6261-32.368 11.339-8.5775 3.8821-17.402 7.2101-25.333 12.397-1.8041 1.1799-3.5665 2.426-5.3992 3.559-1.347 0.83274-2.6548 0.60695-3.5513-0.71632-0.92219-1.3611-0.18688-2.4378 0.96134-3.1909 7.5715-4.9661 14.479-11.048 23.112-14.245 5.8786-2.1767 12.022-3.813 17.535-6.7527 8.6298-4.6018 17.713-7.2814 27.377-8.1286 3.0413-0.26658 6.1903-0.76549 9.7905 1.0422-4.1344 2.3596-8.3228 2.7824-12.124 4.6965z"/>
<path d="m341.56 84.541c-1.5544 4.1873-1.2124 8.4943-2.1266 12.609-0.38026 1.7115-0.22529 3.5424-1.1731 5.2606-1.6116-0.24751-2.2061-1.3234-2.3343-2.623-0.45188-4.5815-2.0094-8.927-2.7824-13.44-0.35452-2.0695-2.1097-2.3032-3.7506-2.3037-3.2727-7.67e-4 -6.3206-1.3956-9.5867-1.4199-0.66046-0.0047-1.4645-0.13718-1.9825-1.2217 1.848-2.7259 5.1838-2.4802 7.8633-3.5201 0.72738-0.28231 1.6304-0.08089 2.3974-0.29737 4.3011-1.2141 4.9459-1.9041 4.9816-6.791 0.0272-3.731 0.56097-7.3521 1.3769-10.957 0.18911-0.83529 0.12532-1.8458 1.2633-2.3895 1.4693 1.045 1.8444 2.6707 2.1682 4.3237 0.75911 3.8755 1.5411 7.7445 2.3945 11.602 0.56138 2.5372 1.861 3.253 4.0685 3.3089 3.7771 0.09553 7.307 1.3578 11.042 2.2761-3.9528 3.5943-9.2503 3.4224-13.82 5.5823z"/>
<path d="m374.81 235.62c-2.1241-0.33046-3.7611-1.1299-5.2346-2.532 1.1389-1.729 2.9674-1.3182 4.4058-1.7968 1.2697-0.42241 2.6038-0.69821 3.9309-0.89228 5.6454-0.82571 5.5372-0.81748 6.1209-6.3892 0.32655-3.1172 1.0121-6.1912 1.23-9.3399 0.0879-1.2699 0.632-2.6228 2.1524-3.6474 1.7438 2.2341 1.7554 5.0433 2.1581 7.4828 0.434 2.6288 1.4151 5.1406 1.4882 7.8835 0.0561 2.1036 1.988 2.8091 3.957 2.8701 2.6096 0.081 5.2215 0.0935 7.8297 0.20123 0.98201 0.0405 2.1809 0.1308 2.3806 1.3323 0.21075 1.2678-0.76422 1.7258-1.8592 2.2252-2.9523 1.3463-5.9835 2.4409-9.1151 3.2292-1.6733 0.42124-2.3976 1.2366-2.3181 3.0054 0.24264 5.4021-1.6954 10.658-1.141 16.098 0.0788 0.77254-0.0598 1.6344-1.1795 2.044-1.1852-1.1049-1.8039-2.5734-2.1279-4.1341-0.89105-4.2917-1.7325-8.5948-2.5177-12.907-0.43416-2.3845-1.6757-3.6913-4.1775-3.6901-1.9749 7.8e-4 -3.9776 0.0994-5.9832-1.0427z"/>
<path d="m512.53 179.06c-9.4069 1.9827-9.5848 1.9833-9.7196 9.269-0.0681 3.684-0.2733 7.3656-0.42574 11.048-0.0259 0.62642-0.0727 1.2642-0.93448 1.6648-1.142-0.7354-1.989-1.8383-2.0756-3.1777-0.29267-4.528-2.4753-8.6165-2.8933-13.115-0.13993-1.505-1.0206-2.4561-2.7508-2.8469-2.7773-0.62725-5.5578-0.30715-8.3236-0.54459-1.995-0.17116-4.1789-0.17992-5.2644-2.9713 3.9086-1.0474 7.6385-2.2215 11.447-3.0184 3.7939-0.79383 3.9767-0.68901 3.8765-4.683-0.0932-3.7115 0.19888-7.3503 1.1709-10.934 0.18837-0.69467 0.28804-1.423 1.4284-1.7991 1.4118 1.4645 1.548 3.5553 2.0712 5.427 0.74327 2.6588 1.3344 5.3617 1.9339 8.0584 0.44089 1.9834 1.526 2.7572 3.6249 2.6716 4.4135-0.18013 8.8184 0.10427 13.166 0.99536 0.95074 0.19489 2.0103 0.1604 2.5623 1.8405-3.6533 0.94522-5.8992 1.4594-8.8935 2.1153z"/>
<path d="m249.33 139.87c-1.2993-0.62675-2.7758-0.34658-3.7265-1.9215 1.9885-1.465 4.3089-2.068 6.636-2.2466 2.1834-0.16769 4.0967-1.2782 6.3106-1.3352 1.2819-0.0331 1.5328-1.4337 1.4506-2.5434-0.30358-4.0962 1.5136-7.9398 1.3482-12.032-0.0535-1.3262 0.54177-2.6408 1.8497-3.318 1.1236 0.21415 1.3286 1.0907 1.4023 1.8511 0.42353 4.3719 1.8542 8.5497 2.4281 12.885 0.26476 2.0002 1.2832 2.9301 3.2639 3.2795 3.1708 0.5593 6.3661 1.079 9.4088 2.2133 0.67621 0.2521 1.3858 0.44299 1.661 1.5216-1.4006 1.6351-3.6378 1.5509-5.4932 1.9141-1.9387 0.37948-3.8397 0.92435-5.7797 1.2579-1.593 0.27389-2.3356 1.1756-2.6326 2.6438-0.55179 2.728-1.1214 5.4524-1.676 8.1799-0.27626 1.3587-0.78841 2.5606-2.0372 3.3155-1.484-0.3703-1.228-1.6169-1.4392-2.6173-0.66513-3.1512-1.3537-6.2975-2.0012-9.4522-0.26793-1.3056-1.1935-1.6313-2.3353-1.842-2.8161-0.51972-5.6188-1.1119-8.6384-1.7532z"/>
<path d="m252.52 259.41c-1.4174 2.8925-0.18533 6.1605-1.9014 8.8999-1.7131-0.38584-2.2402-1.3959-2.5469-2.854-0.6269-2.9802-1.5393-5.9003-2.1698-8.8799-0.51292-2.4244-2.0458-3.2684-4.2829-3.146-2.7563 0.15087-5.2322-1.3028-7.9643-1.2904-0.62251 5e-3 -1.1938-0.40648-1.3083-1.3208 0.74809-1.2412 2.0552-1.742 3.4648-2.0786 2.2744-0.54313 4.5644-1.0271 6.8212-1.6352 1.8122-0.48827 2.7626-1.5463 2.8893-3.6494 0.24805-4.1186 0.83734-8.2181 1.3434-12.318 0.0926-0.75083 0.0644-1.6766 1.1645-2.0755 1.4568 0.89771 1.869 2.3195 2.1553 3.9921 0.61948 3.6191 1.5044 7.192 2.214 10.797 0.34051 1.7296 1.3122 2.2923 3.023 2.2856 2.8757-0.0106 5.7603 0.10864 8.5537 0.95514 0.84943 0.25743 1.7431 0.41315 2.3311 1.4366-1.3169 1.5809-3.2577 1.7651-4.9418 2.3956-1.8474 0.69171-3.7193 1.3533-5.6295 1.8335-2.3157 0.58218-3.2746 1.9094-2.9745 4.2725 0.0885 0.69654-0.11726 1.4304-0.24094 2.3804z"/>
<path d="m532 132.39c1.0354 2.3185 3.0733 2.2137 4.7543 2.0714 3.9398-0.33349 7.5808 1.4584 11.465 1.3258 0.36881-0.0129 0.7513 0.375 1.021 0.51969 0.19143 1.0223-0.38805 1.387-0.99793 1.5088-2.5477 0.50882-5.1046 1.253-7.6706 1.3064-2.3195 0.0483-4.3867 0.84744-6.5756 1.253-1.4716 0.27269-1.3677 1.4795-1.3512 2.5566 0.0582 3.7972-1.4428 7.4248-1.1951 11.249 0.0452 0.69469-0.28848 1.4042-1.2178 2.1529-1.4257-2.2395-2.1816-4.7068-2.1895-7.1777-8e-3 -2.5155-1.1473-4.6864-1.4274-7.0896-0.16787-1.4401-1.444-1.5948-2.7145-1.5867-2.7032 0.0164-5.3866-0.22616-7.9808-1.0476-0.80904-0.25622-1.8445-0.25351-2.145-1.7564 2.0435-1.122 4.3281-1.7845 6.683-2.0058 5.2643-0.49463 6.3134-1.4624 6.3584-6.8053 0.0217-2.5704 0.32793-4.9594 2.4214-7.3429 1.7055 3.5809 2.0679 7.1608 2.7624 10.868z"/>
<path d="m446.17 172.46c0.10391-1.027 0.18367-1.837 1.3376-2.5083 1.5832 2.0163 1.9506 4.4968 2.2416 6.842 0.62068 5.0013 1.2515 5.6301 6.2705 5.9536 3.0399 0.19594 6.0562 0.76869 9.0797 1.196 0.46345 0.0655 0.80968 0.36908 1.0419 1.2205-1.9189 1.3524-4.3774 1.5557-6.6153 2.0002-2.0983 0.41686-4.2178 0.8183-6.329 1.1604-1.956 0.31697-2.367 1.2314-2.2531 2.8922 0.23613 3.4426-0.50862 6.811-0.85039 10.208-0.11135 1.1072-0.1025 2.3737-1.1688 3.083-1.0752-0.0469-1.3509-0.78715-1.3991-1.4847-0.29107-4.2084-1.5303-8.2299-2.2914-12.343-0.325-1.7565-1.0764-2.174-2.6733-2.2056-3.3084-0.0655-6.6812 0.39683-9.8691-0.98948-0.65862-0.28644-1.395-0.39971-1.7527-1.2218 0.30085-1.4042 1.5467-1.1187 2.531-1.3745 3.1101-0.80823 6.3619-0.86789 9.4388-1.8792 1.6573-0.54471 2.168-1.468 2.0495-3.2191-0.16385-2.4209 0.11325-4.8568 1.2116-7.3297z"/>
<path d="m502.81 25.006c2.828 0 6.0209-1.5744 5.9639-7.0816-0.0248-2.3802 0.42188-4.9618 2.4034-7.4927 1.4824 2.7601 1.9185 5.4784 2.3562 8.0859 0.80911 4.8201 0.97339 5.0927 5.6731 5.2071 2.2498 0.05477 4.4961 0.28232 6.7418 0.46027 0.94646 0.07506 1.8831 0.3515 1.9229 1.4885 0.0385 1.1025-0.82176 1.5204-1.7707 1.703-2.4658 0.47453-4.9195 1.06-7.407 1.3618-3.3428 0.40559-3.8744 0.80612-3.9398 4.1094-0.054 2.7235-0.57031 5.3672-1.18 8.002-0.16057 0.69377-0.25465 1.4474-1.488 1.7838-1.2687-1.7305-1.2242-4.0445-2.0436-6.0032-0.13334-0.31874-0.0749-0.71374-0.13024-1.0696-0.84867-5.4486-1.1544-5.6563-6.5751-5.7669-2.1498-0.04383-4.3015-0.34443-6.4355-0.64684-0.95044-0.13464-1.9632-0.42519-2.319-1.9995 2.5626-1.0501 7.4854-2.1415 8.2276-2.1415z"/>
<path d="m258.22 233.04c-1.0959-3.0584 0.20258-5.2868 2.117-7.1835 1.4411-1.4278 3.3043-1.752 5.2714-1.0578 2.9939 1.0564 4.1453 2.8332 4.0109 6.1837-0.10226 2.5513-2.0439 5.0145-4.3532 5.5227-3.0124 0.66296-5.2498-0.39606-7.0461-3.465z"/>
<path d="m414.69 195.69c-2.3293-2.1504-2.8106-6.4023-1.0992-8.3344 2.3725-2.6787 6.1316-3.1579 8.6887-1.1077 2.3533 1.8868 2.7724 5.6419 0.92178 8.2593-1.7952 2.5391-5.5397 3.1274-8.5112 1.1828z"/>
<path d="m307.55 99.353c3.4494 1.0145 5.6205 4.2754 4.7663 6.8684-1.2392 3.7615-5.1011 5.6463-8.6035 4.1989-2.8068-1.16-4.2633-5.0479-2.7621-8.0267 1.2807-2.5411 3.6689-3.2743 6.5993-3.0406z"/>
<path d="m429.14 56.748c-2.3083-3.2687-2.2417-5.9296 0.0563-8.1277 2.0912-2.0001 5.5816-2.3834 7.6654-0.84161 2.5478 1.8851 3.3157 6.4077 1.4673 8.6412-2.2552 2.725-6.3705 2.9447-9.1891 0.32814z"/>
<path d="m531.68 90.193c0.0885-3.4526 1.3472-5.4474 3.824-6.2768 2.4706-0.82727 5.6556-0.08384 6.8763 1.6572 1.4671 2.0924 1.6631 4.4197 0.45058 6.5842-1.3371 2.3867-3.6796 3.4242-6.3632 2.9835-2.5869-0.42482-4.373-1.9649-4.7877-4.948z"/>
<path d="m528.92 117.6c-3.8884 2.7482-6 2.8037-8.2777 0.37052-2.6478-2.8285-2.8343-5.4536-0.56057-7.8892 2.1299-2.2815 5.769-2.6302 8.119-0.77803 2.5808 2.0342 2.9105 5.15 0.71932 8.2967z"/>
<path d="m477.44 210.6c-0.0381 3.8348-1.1176 5.3004-4.4532 6.2889-2.2296 0.66075-4.7968-0.33418-6.0101-2.4684-1.1712-2.0602-1.6892-4.2085-0.039-6.3048 1.5602-1.982 3.5884-3.0528 6.1253-2.5197 2.5152 0.52852 4.1599 2.038 4.3769 5.0041z"/>
<path d="m316.89 70.324c-4.4054-2.3804-5.3152-5.8551-2.371-9.0052 1.6137-1.7265 3.5504-3.1473 6.1806-1.91 3.0108 1.4164 4.4486 3.6421 4.0747 6.28-0.32655 2.304-2.8418 4.5196-5.5252 4.7933-0.70598 0.07203-1.4318-0.05113-2.3592-0.15821z"/>
<path d="m330.45 250.5c1.8701-1.8882 3.9365-2.9583 6.4086-2.4766 2.8061 0.54671 5.0853 3.8254 4.6084 6.2824-0.56169 2.894-4.0979 5.3829-7.0737 4.9787-2.6979-0.36642-5.0965-3.6661-4.7193-6.5856 0.0895-0.69329 0.42969-1.3543 0.77597-2.1989z"/>
<path d="m429.5 93.885c-3.7478 1.0684-6.2113 0.15527-7.1148-2.5036-1.328-3.9081 0.13191-6.7999 4.1642-8.248 2.3562-0.84613 5.5023 0.61613 6.347 3.0983 1.0562 3.1039 0.6605 6.1989-3.3964 7.6533z"/>
<path d="m442.3 34.828c-1.0005-3.1813 0.3649-6.2101 3.0551-7.1526 3.311-1.16 6.9017 0.4066 7.9818 3.4824 0.91708 2.6117-0.72052 5.9226-3.4615 6.9983-3.1364 1.2309-5.9991 0.0316-7.5755-3.3281z"/>
<path d="m498.57 38.175c4.3163 0.11399 6.3283 1.73 6.4522 4.9972 0.11891 3.1383-2.3683 5.8526-5.5529 6.0596-3.3516 0.21783-5.8472-1.9334-6.1433-5.2957-0.26242-2.9788 1.7409-5.2655 5.244-5.761z"/>
<path d="m414.95 206.82c2.5509 4.5823 0.43757 9.0012-4.2167 9.2636-3.731 0.21042-6.4018-2.0462-6.3776-5.3886 0.0231-3.204 3.2205-6.0343 6.6138-5.6844 1.3909 0.1434 2.9097 0.29357 3.9804 1.8093z"/>
<path d="m375.6 75.099c2.9632-0.94096 6.1257 0.47203 6.9936 2.9417 1.2118 3.4484-0.1814 6.3324-3.7074 7.6739-2.5064 0.9536-5.8671-0.47413-6.9597-2.9567-1.3535-3.0755 0.0216-6.0641 3.6735-7.6589z"/>
<path d="m235.36 200.24c-2.2386-2.4945-2.5135-6.1751-0.79356-8.2426 1.7961-2.159 4.7953-2.84 7.0565-1.6021 2.6683 1.4608 3.6683 5.0547 2.2266 8.0021-1.5326 3.1332-4.5223 3.838-8.4895 1.8426z"/>
<path d="m353.46 221.84c-2.9648-2.6462-3.2034-6.5578-0.72567-8.8314 2.6022-2.3879 6.2596-2.233 8.3308 0.3528 1.2626 1.5763 1.5658 5.406 0.54788 6.9196-1.21 1.7993-4.7288 2.7767-6.9226 1.9347-0.33403-0.12823-0.69147-0.19544-1.2304-0.37574z"/>
<path d="m411.38 63.106c-3.4248 0.47115-6.397-1.8839-6.7681-5.1174-0.30224-2.6333 2.415-5.6981 5.4158-6.1082 2.6654-0.36435 5.8566 2.3659 6.1593 5.2696 0.2494 2.3928-1.4451 4.5487-4.8069 5.9561z"/>
<path d="m540.71 55.248c-3.4633-0.70879-5.0862-3.2784-4.558-6.8677 0.39562-2.6888 2.9394-4.3801 6.2603-4.1623 2.6301 0.17245 4.7954 2.7067 4.7668 5.5789-0.0305 3.0497-2.2551 5.2935-5.4291 5.4701-0.26861 0.01461-0.53896-4.39e-4 -1.04-0.019z"/>
<path d="m328.35 219.99c2.8348-0.73115 4.7643 0.28962 6.1125 2.4871 1.3368 2.179 1.6051 4.3343-0.42904 6.3482-1.7522 1.7348-5.1875 2.5972-7.1767 1.4763-2.2227-1.2524-3.3239-3.278-2.886-5.8649 0.39554-2.3363 1.8944-3.7772 4.3792-4.4468z"/>
<path d="m297.26 246.06c0.31347-4.1142 1.491-5.5658 4.6699-5.9718 3.5846-0.45786 5.5199 0.46079 6.0811 2.8865 0.90859 3.9273-0.24136 6.5325-3.4222 7.7529-2.6524 1.0176-5.1705-0.18276-6.7739-3.2406-0.20691-0.39465-0.36463-0.81513-0.55489-1.427z"/>
<path d="m380.9 51.706c2.7665-0.5108 5.058-0.26395 6.539 2.2442 1.0634 1.8008 1.5554 3.5764 0.27649 5.5449-1.5 2.3087-3.6039 3.0354-6.2302 2.8609-2.8169-0.18716-3.7504-2.174-4.3303-4.4344-0.62507-2.4366 0.70042-4.6414 3.745-6.2155z"/>
<path d="m306.3 133.48c-2.2256 2.6466-6.1991 3.0896-8.4579 1.1178-2.4844-2.1688-2.5063-5.5-0.0549-8.3868 1.6762-1.9741 5.57-1.9832 7.7972 0.0995 2.1891 2.047 1.505 4.5381 0.71574 7.1694z"/>
<path d="m297.74 191.58c-1.4279 3.007-3.0426 3.7839-5.853 2.9434-2.3357-0.6985-3.2823-2.3441-3.0574-4.6891 0.28712-2.9936 2.6398-4.428 6.1465-3.8067 2.3466 0.41581 3.4476 2.4809 2.7639 5.5523z"/>
<path d="m285.6 269.4c-0.90206-2.4828-9e-3 -4.1693 1.8415-5.498 1.5523-1.1141 3.1367-1.1699 4.7263-0.0803 1.835 1.2577 1.8515 3.1238 1.6259 5.0403-0.21648 1.8385-1.5896 2.3675-3.1353 2.816-2.278 0.66092-3.7972-0.24211-5.0584-2.278z"/>
<path d="m339.26 127.56c2.7514 0.40839 3.9872 2.1006 4.1245 4.4678 0.10663 1.8379-0.81213 3.2556-2.7233 3.8848-2.4027 0.79101-4.5726-9e-3 -5.7125-2.1979-1.0304-1.9788-0.25817-4.0108 2.1139-5.381 0.60732-0.35084 1.3194-0.52035 2.1974-0.77364z"/>
<path d="m444.48 102.89c-0.45145-2.9226 0.79527-5.0375 3.0628-5.56 2.4781-0.57104 4.4823 0.63982 5.3332 3.3277 0.69552 2.1972-0.53317 3.6792-2.2361 4.6347-2.162 1.213-4.4665 0.26001-6.1599-2.4024z"/>
<path d="m346.56 176.96c-3.543 0.12952-4.8036-0.75489-5.2141-3.4529-0.357-2.3468 0.89739-4.1841 3.2695-4.7888 2.0064-0.51148 4.1257 0.63637 4.9655 2.6894 0.90176 2.2046-0.11077 4.1889-3.0209 5.5523z"/>
<path d="m550 106.41c0.27225 2.8447-1.2334 4.8501-3.6501 5.1584-2.3456 0.29922-4.2463-1.1355-4.77-3.7668-0.44355-2.2282 0.74433-3.6644 2.6985-4.4082 2.6901-1.0239 4.4498-0.0817 5.7216 3.0166z"/>
<path d="m239.72 219.64c-2.0975-2.0099-1.8069-4.1821-0.62179-6.2152 1.0961-1.8805 2.9585-1.7996 4.7819-1.1282 2.5008 0.92076 3.415 3.0269 2.3907 5.373-1.1348 2.5992-3.6 3.4014-6.5508 1.9705z"/>
<path d="m513.78 78.316c-2.1005 1.1341-3.9827 1.3362-5.5433-0.47145-1.2602-1.4597-1.7639-3.1465-0.7514-4.9768 1.0632-1.922 2.8132-2.3432 4.8451-2.1306 1.9703 0.20612 2.6609 1.8189 3.2534 3.2528 0.71311 1.7259-0.28049 3.1044-1.8038 4.326z"/>
<path d="m516.5 152.61c2.6314-0.47494 4.229 0.65153 5.0624 2.7926 0.66645 1.7123-0.0928 3.1474-1.4468 4.2592-2.1604 1.7739-4.6771 1.5696-6.1142-0.46646-1.3405-1.8992-0.74288-4.6021 1.3436-6.0218 0.29356-0.19974 0.62808-0.33924 1.155-0.5634z"/>
<path d="m259.38 181.24c-2.1395 0.43603-3.8281 0.10486-4.9089-1.696-0.8711-1.4514-0.68259-2.9737 0.13372-4.3579 1.2278-2.0821 3.4203-2.6835 5.2993-1.5748 2.3308 1.3752 2.8926 3.4138 1.5687 5.7246-0.45152 0.78815-0.94457 1.543-2.0928 1.9042z"/>
<path d="m375.13 216.86c2.2921-0.80549 4.4199-1.3736 5.9315 0.93558 1.1448 1.7489 0.71328 4.3112-0.77404 5.35-2.0022 1.3983-4.4129 1.2499-5.8731-0.3616-1.8103-1.9978-1.6838-3.3757 0.71566-5.924z"/>
<path d="m463.83 44.583c2.5989 1.8951 3.2828 3.7588 2.1706 5.4259-1.5546 2.3302-4.1956 3.0183-6.2773 1.6849-2.0031-1.2831-2.0173-3.381-1.3087-5.0234 0.87477-2.0276 2.8969-2.8162 5.4154-2.0873z"/>
<path d="m437.22 227.7c-1.1749-2.4652-0.51947-4.2638 1.6325-5.3681 2.0605-1.0573 5.0225-0.36 5.725 1.3545 0.74454 1.8172 0.82852 3.7296-0.98667 5.1146-1.7 1.2973-4.5365 0.84545-6.3708-1.101z"/>
<path d="m393.73 159.56c-2.7326 0.26084-4.1361-1.2365-4.6264-3.3892-0.41132-1.8055 0.64492-3.1902 2.28-4.1548 1.6496-0.97315 3.093-0.71656 4.4331 0.45697 2.2577 1.9772 1.2951 5.5155-2.0867 7.087z"/>
<path d="m501.7 133.42c1.8083 1.3486 2.6636 2.9556 2.014 4.999-0.5423 1.7058-2.0356 2.1094-3.6405 2.1975-2.2849 0.1255-4.1201-1.3183-4.3669-3.4348-0.18617-1.5969 1.7168-3.6668 3.6767-3.9059 0.69358-0.0845 1.4124 0.0378 2.3167 0.14414z"/>
<path d="m355.26 143.2c1.6818 3.3965 0.93628 5.3506-2.263 6.4937-1.8857 0.67379-3.9239-0.5154-4.4762-2.7154-0.46261-1.8426 0.15656-3.4088 1.7009-4.4716 1.724-1.1865 3.3933-0.8949 5.0382 0.69327z"/>
<path d="m355.39 102.03c-0.51455 0.422-0.8482 0.76159-1.2529 0.92554-1.9291 0.78135-3.7692 0.66525-5.1221-1.0552-1.2164-1.5469-0.99383-3.2659 0.15765-4.7481 1.4123-1.8179 3.5012-1.4744 5.2187-0.87881 1.9251 0.66762 1.961 2.6045 1.7038 4.3807-0.0612 0.4222-0.36487 0.80923-0.70517 1.3759z"/>
<path d="m314.14 196.56c1.5604 1.8765 1.9764 3.8903 0.46713 5.5332-1.0008 1.0894-2.6042 1.9821-4.3888 1.3288-1.9855-0.72684-3.031-3.0652-2.2928-5.0924 0.83447-2.2914 3.3754-3.0955 6.2144-1.7697z"/>
<path d="m246.78 154.7c2.1962-1.1284 3.6436-0.25097 4.8145 1.3279 1.3002 1.7534 0.76425 3.391-0.51574 4.885-1.2577 1.468-2.9439 1.3526-4.4518 0.73671-1.6054-0.65562-2.4915-2.0228-2.1792-3.8948 0.22247-1.3338 1.1188-2.1965 2.3323-3.0547z"/>
<path d="m492.48 102.2c0.39124-2.7824 1.9625-3.9312 4.5009-3.8559 1.7357 0.05149 2.9045 0.83432 3.2552 2.6241 0.4086 2.0853 0.0693 4.0002-2.235 4.517-3.0112 0.67534-4.862 0.13281-5.5212-3.2852z"/>
<path d="m472.85 21.367c-0.26965-2.279 0.0444-4.0365 2.4136-4.631 2.4412-0.61253 4.5133 0.23901 5.088 2.2593 0.54641 1.921-0.071 3.622-1.8344 4.6035-1.9787 1.1013-4.1256 0.2489-5.6672-2.2318z"/>
<path d="m350.05 55.359c-2.5458-2.3896-2.7651-3.7701-1.054-5.5487 1.6317-1.696 3.5669-1.8521 5.2181-0.37296 1.188 1.0642 1.7139 2.4433 0.92166 3.8736-1.0354 1.8693-2.5609 3.0435-5.0857 2.0481z"/>
<path d="m464.79 161.04c2.3296 2.7695 2.275 4.3671 0.0534 6.0205-1.4084 1.0483-2.8235 1.119-4.2459 0.16441-1.4663-0.98407-1.6384-2.4954-1.3968-4.0823 0.26259-1.7255 1.4816-2.3208 3.0569-2.4935 0.81493-0.0893 1.6106-0.19514 2.5325 0.39085z"/>
<path d="m523.15 11.911c-2.9206-0.30989-3.9999-1.5924-3.7826-4.2059 0.15764-1.8952 1.858-3.1707 4.0162-3.0127 1.933 0.14157 3.4094 1.8357 3.2692 3.8391-0.14102 2.0171-1.5067 2.9004-3.5028 3.3794z"/>
<path d="m477.95 182.55c-1.7572 1.435-3.469 1.5272-5.101 0.34466-1.5666-1.1352-1.5039-2.8646-0.91764-4.4179 0.61199-1.6215 2.157-2.1197 3.7817-2.0396 2.762 0.13608 3.7802 2.7332 2.2369 6.1128z"/>
<path d="m273.27 113.31c0.88589-2.1 2.0942-3.3851 4.4-2.8769 1.4491 0.31932 2.4136 1.1511 2.701 2.6426 0.44173 2.2918-0.94011 4.2744-3.1 4.4853-2.5725 0.25119-3.9081-1.0813-4.0011-4.251z"/>
<path d="m397.04 33.837c-0.40397-2.553 0.51456-4.1624 2.8336-4.5924 1.673-0.31019 3.2732 0.25074 3.9834 1.9775 0.76056 1.8494 0.50913 3.557-1.4489 4.5955-2.1176 1.1231-3.9506 0.49473-5.3681-1.9806z"/>
<path d="m365.47 248.79c-3.1065-1.0236-2.41-3.3738-1.802-5.2185 0.59713-1.8118 2.3868-2.4326 4.2448-1.7245 2.0447 0.7792 2.8744 2.3654 2.3206 4.5324-0.62298 2.4373-2.7215 2.2294-4.7634 2.4106z"/>
</g><text x="97.028122" y="384.82925" font-family="'Test Söhne Breit'" font-size="133.98px" font-stretch="expanded" font-weight="bold" stroke="#000000" stroke-width="1.7944" style="paint-order:fill markers stroke"><tspan x="97.028122" y="384.82925" fill="#6366f1" stroke="#000000" stroke-opacity=".69581" stroke-width="1.7944">IntelNav</tspan></text></g></svg>
