<svg
   role="img" aria-label="IntelNav banner"
   width="800"
   viewBox="0 0 800 400"
   height="400"
   xmlns="http://www.w3.org/2000/svg"><defs
   id="defs65"><rect
     x="277.84"
     y="92"
     width="326.60001"
     height="115.92"
     id="rect65" /></defs>
<path
   fill="#000000"
   opacity="1"
   stroke="none"
   d="m 476.80108,139.67904 c -7.99504,6.86326 -17.31702,11.24681 -26.1645,16.38502 -7.70346,4.47382 -15.32483,9.04639 -22.36131,14.56377 -7.84464,6.15108 -16.84896,10.30823 -25.82644,14.48279 -6.49754,3.02136 -12.97511,6.08568 -19.6127,9.20179 1.32317,0.90144 2.89655,1.32206 3.31782,2.99489 0.27953,1.10987 0.16185,2.24056 -0.2985,3.17703 -0.94563,1.92392 -2.78617,2.57486 -4.7598,2.24987 -2.01533,-0.3318 -3.05365,-3.17871 -2.52821,-6.2718 -10.35122,4.25866 -21.37646,6.51038 -31.70782,10.93451 -6.21749,2.66249 -13.07555,3.73995 -19.37262,6.42045 -4.35949,1.85575 -8.67993,3.77797 -13.32902,4.97265 -10.19171,2.61906 -20.52559,3.78003 -30.98094,3.12051 -5.2891,-0.33361 -10.36994,-1.83725 -14.24015,-6.07376 -2.12798,-2.32938 -3.26053,-5.09587 -3.67532,-7.97825 -0.59855,-4.15909 -0.43213,-8.36092 0.23521,-12.60675 1.66709,-10.60655 8.30031,-18.79049 13.01871,-27.90911 0.82192,-1.5884 1.94748,-3.02317 2.47352,-4.94116 -1.03201,-0.77945 -2.34192,-1.24964 -2.9949,-2.53607 -1.29986,-2.56082 -0.52679,-6.46332 1.68301,-8.0047 1.97152,-1.3751 6.08175,-0.762 7.73064,1.53929 0.91953,1.28329 3.38425,1.33156 3.0057,3.385 -0.286,1.55122 -1.09048,3.04649 -1.85557,4.46332 -4.8365,8.95663 -8.73307,18.30518 -11.57196,28.07167 -0.99586,3.42597 -1.99357,6.95913 -2.1825,10.4866 -0.27964,5.22117 5.97953,10.35758 11.42959,9.94701 7.53612,-0.56773 15.10201,-0.93749 22.55896,-2.18274 7.15008,-1.19404 14.23036,-2.8014 21.35474,-4.15653 3.26644,-0.62134 6.54969,-1.33394 9.85338,-1.5285 3.22934,-0.19017 6.17528,-1.02965 9.02495,-2.40743 5.92349,-2.86389 12.3672,-4.25546 18.49422,-6.55917 9.37449,-3.52479 18.121,-8.24569 26.90394,-12.98746 8.76357,-4.73126 17.84742,-8.86679 26.75793,-13.32933 5.48019,-2.74459 10.56535,-6.16885 15.60963,-9.61803 9.14868,-6.25568 18.69559,-11.87905 27.98234,-17.90767 8.31117,-5.39532 16.05818,-11.59837 23.62533,-18.00596 0.6813,-0.57691 1.38749,-1.14868 2.15806,-1.59036 1.142,-0.65465 2.43656,-1.66165 3.6389,-0.35989 1.13796,1.23206 0.30662,2.64796 -0.42097,3.72138 -1.0028,1.4794 -2.23091,2.8266 -3.48378,4.11218 -4.27233,4.38368 -8.71474,8.5915 -13.48957,12.72494 z"
   id="path1"
   style="fill:#6366f1;fill-opacity:1;stroke:#000000;stroke-width:0.54122;stroke-opacity:0.69580871" />
<path
   fill="#000000"
   opacity="1"
   stroke="none"
   d="m 438.20275,137.84728 c 1.96417,-1.44456 3.76937,-2.7799 6.03115,-4.45295 -2.16424,-0.24238 -4.10506,0.17922 -5.51085,-1.36566 -1.26141,-1.38623 -2.26303,-2.79483 -2.13862,-4.76715 0.15418,-2.44335 2.3566,-4.6894 4.91925,-4.99541 3.83741,-0.45828 4.85278,0.55306 7.20353,7.20039 1.14952,0.0855 1.72154,-0.84265 2.41147,-1.47863 1.60433,-1.47885 3.32669,-2.74934 5.33623,-3.63107 1.01124,-0.44375 2.01245,-1.07612 2.86344,0.16716 0.81751,1.19422 0.77174,2.30335 -0.38211,3.35511 -3.32723,3.03284 -6.74981,5.97834 -9.88397,9.20211 -6.72868,6.92109 -15.47715,10.74285 -23.54004,15.60093 -4.33062,2.60926 -8.2777,5.73756 -12.48076,8.49912 -7.99707,5.25435 -17.01783,8.53976 -25.47985,12.89698 -6.2955,3.24164 -13.16711,4.63756 -19.69581,7.09926 -7.29519,2.75068 -14.63635,5.46374 -22.05491,7.80183 -8.12313,2.56011 -16.63109,4.0681 -25.19585,1.83344 -3.85832,-1.00666 -6.67148,-3.33289 -7.62596,-7.52703 -1.69034,-7.42746 0.48869,-14.01193 4.14292,-20.32714 2.16248,-3.73718 4.29312,-7.49274 6.43789,-11.24016 1.16473,-2.03518 3.30132,-3.07422 6.30709,-2.97577 0.72351,2.45137 -0.96298,4.31333 -1.95459,6.10668 -3.60344,6.51696 -5.78587,13.51602 -7.65929,20.64433 -0.88373,3.36262 1.84126,6.62408 5.81201,6.80788 5.69735,0.26374 11.27236,-0.85422 16.85451,-1.80413 3.17643,-0.54053 6.39683,-0.88634 9.52702,-1.6202 4.75761,-1.11527 9.64694,-1.25969 14.31643,-3.28849 6.31427,-2.74338 13.20736,-4.26495 19.23447,-7.63589 13.08776,-7.32 27.21311,-12.76424 39.28479,-21.94649 3.98769,-3.03318 8.49287,-5.38589 12.92041,-8.15897 z"
   id="path2"
   style="fill:#6366f1;fill-opacity:1;stroke:#000000;stroke-width:0.54122;stroke-opacity:0.69580871" />
<path
   fill="#000000"
   opacity="1"
   stroke="none"
   d="m 370.11848,106.08001 c -12.47284,8.08293 -25.97802,13.98834 -38.1965,22.11253 -9.13431,6.07351 -18.21126,12.23019 -26.17948,19.8452 -0.19538,0.18669 -0.36886,0.39666 -0.56753,0.57951 -1.52233,1.40129 -3.39292,2.3522 -4.96965,0.60678 -1.54721,-1.71272 -0.25447,-3.29772 1.23724,-4.56929 8.49231,-7.23888 16.90822,-14.56888 25.47425,-21.71925 6.69172,-5.58581 14.64368,-9.06597 22.36319,-12.93595 10.44654,-5.23713 20.80118,-10.589719 30.4641,-17.294434 7.02009,-4.870934 15.20582,-7.738005 23.13301,-10.912032 9.90703,-3.966749 19.88728,-7.751065 29.84722,-11.584942 2.74116,-1.055148 5.68767,-0.834253 8.53177,-1.016061 4.0393,-0.258174 8.10837,-0.0503 12.16473,-0.04239 1.1949,0.0012 2.34339,0.08656 3.01908,1.981214 -30.54167,7.27823 -58.31616,21.140242 -86.32143,34.949085 z"
   id="path3"
   style="fill:#6366f1;fill-opacity:1;stroke:#000000;stroke-width:0.54122;stroke-opacity:0.69580871" />
<path
   fill="#000000"
   opacity="1"
   stroke="none"
   d="m 532.69324,77.472216 c -6.92304,13.53746 -17.1024,24.183604 -27.81838,34.396414 -0.64107,0.61098 -1.29568,1.05579 -2.13566,0.48164 -0.93062,-0.63608 -0.45186,-1.52606 -0.13117,-2.19275 1.90384,-3.95755 3.92899,-7.85682 5.82746,-11.816852 3.18542,-6.644349 7.81401,-12.554712 10.29582,-19.524427 1.98216,-5.566517 -0.27288,-10.619947 -3.23045,-15.234732 -1.06687,-1.664679 -3.23198,-2.25641 -5.26994,-2.305131 -8.09942,-0.193676 -16.26565,-0.715144 -24.20085,1.237487 -4.79616,1.180191 -9.84388,0.728319 -14.51337,2.800788 -2.06029,0.914436 -4.61317,0.663546 -6.91211,-0.06892 -0.71208,-0.226847 -1.35221,-0.597605 -1.38249,-1.462689 -0.0262,-0.747514 0.55963,-1.042634 1.10269,-1.391726 2.84383,-1.828094 6.05145,-2.744437 9.26562,-3.555193 6.24251,-1.574605 12.51452,-3.035772 18.79127,-4.469597 4.1794,-0.954697 8.38798,-1.781765 12.58391,-2.663899 3.51589,-0.739116 7.03351,-1.433079 10.60656,-1.890514 4.15934,-0.532509 8.08998,-0.0286 11.6925,2.1113 6.41984,3.813466 9.76718,12.935095 7.43417,20.046201 -0.58676,1.788483 -1.29337,3.537666 -2.00556,5.502478 z"
   id="path4"
   style="fill:#6366f1;fill-opacity:1;stroke:#000000;stroke-width:0.54122;stroke-opacity:0.69580871" />
<path
   fill="#000000"
   opacity="1"
   stroke="none"
   d="m 418.01878,116.08182 c 2.05025,-0.74145 3.83618,-0.0906 5.51853,0.35932 2.46448,0.659 3.04849,3.89112 1.46828,6.61621 -2.42298,4.17839 -6.16026,7.0368 -9.98946,9.70809 -9.30916,6.49421 -19.2793,11.77964 -29.98724,15.60492 -3.63053,1.29696 -7.36942,2.26579 -11.20285,2.67845 -2.29964,0.24754 -4.55278,-0.18249 -5.80063,-2.4988 -1.33476,-2.4777 0.0286,-4.53986 1.33949,-6.45769 2.00942,-2.94002 4.86658,-5.05897 7.70626,-7.10131 11.08863,-7.97502 23.08345,-14.18947 36.19791,-18.12625 1.45012,-0.43528 3.0108,-0.50221 4.74971,-0.78294 z"
   id="path5"
   style="fill:#6366f1;fill-opacity:1;stroke:#000000;stroke-width:0.54122;stroke-opacity:0.69580871" />
<path
   fill="#000000"
   opacity="1"
   stroke="none"
   d="m 465.31722,121.50171 c 0.49787,-6.29466 2.54822,-11.8273 5.75636,-16.97793 1.04455,-1.67705 1.85795,-3.49663 2.87067,-5.19518 2.01299,-3.376323 0.71764,-6.486761 -0.89894,-9.422287 -0.92329,-1.676571 -2.90038,-1.947854 -4.72408,-2.115715 -5.36416,-0.493748 -10.5914,0.56447 -15.78361,1.605081 -3.68649,0.738838 -7.35326,0.485836 -11.03572,0.507552 -0.72139,0.0047 -1.43967,-0.183874 -1.82846,-1.147693 1.22509,-2.22987 3.72674,-2.749243 5.80083,-3.254598 7.65586,-1.865382 15.27074,-3.911555 23.05985,-5.265724 3.86543,-0.672024 7.48269,-1.432803 11.31962,0.09754 3.29423,1.313854 5.8507,4.516589 6.21696,8.039966 0.51989,5.001432 -1.04793,9.340157 -3.57507,13.526588 -2.21178,3.66409 -5.34146,6.55112 -7.9379,9.88326 -0.65538,0.84108 -1.24482,1.73352 -2.00573,2.80025 3.55701,1.6719 4.40729,4.51066 3.59105,7.90218 -0.48693,2.02333 -3.4106,3.73199 -5.78645,3.66544 -2.89718,-0.0814 -4.35873,-1.79685 -5.03938,-4.64873 z"
   id="path6"
   style="fill:#6366f1;fill-opacity:1;stroke:#000000;stroke-width:0.54122;stroke-opacity:0.69580871" />
<path
   fill="#000000"
   opacity="1"
   stroke="none"
   d="m 419.70562,105.44043 c -11.17608,3.10896 -21.95469,6.6261 -32.36766,11.3389 -8.57749,3.88208 -17.40211,7.21007 -25.33292,12.39692 -1.80412,1.17991 -3.56647,2.42602 -5.39915,3.55897 -1.34704,0.83274 -2.65475,0.60695 -3.55131,-0.71632 -0.92219,-1.36106 -0.18688,-2.43779 0.96134,-3.19091 7.57146,-4.96614 14.47875,-11.04828 23.11191,-14.24495 5.87864,-2.17672 12.02171,-3.81295 17.53464,-6.7527 8.62985,-4.60183 17.71264,-7.28142 27.37687,-8.128583 3.04129,-0.266583 6.19033,-0.765491 9.79047,1.042203 -4.13443,2.35964 -8.3228,2.78244 -12.12419,4.69647 z"
   id="path7"
   style="fill:#6366f1;fill-opacity:1;stroke:#000000;stroke-width:0.54122;stroke-opacity:0.69580871" />
<path
   fill="#000000"
   opacity="1"
   stroke="none"
   d="m 341.56051,84.5409 c -1.55441,4.187278 -1.21239,8.49432 -2.12658,12.608973 -0.38026,1.711502 -0.22529,3.542417 -1.17309,5.260597 -1.61158,-0.24751 -2.20614,-1.32343 -2.3343,-2.62297 -0.45188,-4.581548 -2.00945,-8.927039 -2.78239,-13.439518 -0.35452,-2.069532 -2.10974,-2.303156 -3.75056,-2.303735 -3.27267,-7.67e-4 -6.32064,-1.395558 -9.58667,-1.41992 -0.66046,-0.0047 -1.46448,-0.137182 -1.98248,-1.221651 1.84803,-2.72592 5.1838,-2.480216 7.86328,-3.52013 0.72738,-0.282312 1.63036,-0.08089 2.39744,-0.297368 4.30111,-1.214105 4.94586,-1.904126 4.98156,-6.791049 0.0272,-3.731035 0.56097,-7.352076 1.37691,-10.956543 0.18911,-0.83529 0.12532,-1.845762 1.26331,-2.389531 1.4693,1.04501 1.84443,2.670712 2.16816,4.323679 0.75911,3.875531 1.54108,7.744488 2.39451,11.601876 0.56138,2.537193 1.86099,3.253004 4.0685,3.308872 3.77714,0.09553 7.30699,1.35777 11.04198,2.27609 -3.95282,3.594336 -9.25028,3.422365 -13.81958,5.582328 z"
   id="path8"
   style="fill:#6366f1;fill-opacity:1;stroke:#000000;stroke-width:0.54122;stroke-opacity:0.69580871" />
<path
   fill="#000000"
   opacity="1"
   stroke="none"
   d="m 374.81335,235.6158 c -2.12413,-0.33046 -3.76107,-1.12988 -5.23464,-2.53197 1.13886,-1.72901 2.96736,-1.31823 4.40585,-1.79682 1.26967,-0.42241 2.60381,-0.69821 3.93093,-0.89228 5.6454,-0.82571 5.53719,-0.81748 6.12086,-6.38923 0.32655,-3.11718 1.01214,-6.1912 1.23,-9.3399 0.0879,-1.2699 0.632,-2.6228 2.15238,-3.64738 1.74379,2.23412 1.75539,5.04327 2.15814,7.48281 0.434,2.6288 1.41511,5.14056 1.4882,7.88354 0.0561,2.10364 1.98798,2.80909 3.95704,2.87011 2.60955,0.081 5.22152,0.0935 7.82972,0.20123 0.98201,0.0405 2.18094,0.1308 2.38062,1.33229 0.21075,1.26778 -0.76422,1.72584 -1.85915,2.22522 -2.95226,1.34633 -5.98348,2.44088 -9.11506,3.22923 -1.67331,0.42124 -2.39755,1.23665 -2.31812,3.0054 0.24264,5.40211 -1.69543,10.65832 -1.14104,16.09782 0.0788,0.77254 -0.0598,1.63443 -1.17946,2.04396 -1.18516,-1.10491 -1.80386,-2.57338 -2.12787,-4.13407 -0.89105,-4.29173 -1.73249,-8.59475 -2.51766,-12.90716 -0.43416,-2.38446 -1.67574,-3.69132 -4.1775,-3.69013 -1.97494,7.8e-4 -3.97765,0.0994 -5.98324,-1.04267 z"
   id="path9"
   style="fill:#6366f1;fill-opacity:1;stroke:#000000;stroke-width:0.54122;stroke-opacity:0.69580871" />
<path
   fill="#000000"
   opacity="1"
   stroke="none"
   d="m 512.53196,179.05789 c -9.4069,1.98268 -9.58484,1.98326 -9.71961,9.26904 -0.0681,3.68402 -0.2733,7.36555 -0.42574,11.04784 -0.0259,0.62642 -0.0727,1.26422 -0.93448,1.66485 -1.142,-0.7354 -1.989,-1.83826 -2.07557,-3.17768 -0.29267,-4.52796 -2.47531,-8.61651 -2.89331,-13.11476 -0.13993,-1.50498 -1.0206,-2.45609 -2.75079,-2.84688 -2.77732,-0.62725 -5.55775,-0.30715 -8.32362,-0.54459 -1.99502,-0.17116 -4.17893,-0.17992 -5.26437,-2.97127 3.90865,-1.04743 7.63852,-2.22147 11.44731,-3.01838 3.79394,-0.79383 3.97671,-0.68901 3.87653,-4.68296 -0.0932,-3.71153 0.19888,-7.35028 1.17094,-10.93423 0.18837,-0.69467 0.28804,-1.42296 1.42836,-1.79908 1.41177,1.46447 1.54799,3.55532 2.0712,5.42696 0.74327,2.65875 1.33437,5.36174 1.93387,8.05845 0.44089,1.98345 1.52596,2.75716 3.6249,2.67155 4.41348,-0.18013 8.81845,0.10427 13.16555,0.99536 0.95074,0.19489 2.01028,0.1604 2.56229,1.84047 -3.65331,0.94522 -5.89921,1.45944 -8.89346,2.11531 z"
   id="path10"
   style="fill:#6366f1;fill-opacity:1;stroke:#000000;stroke-width:0.54122;stroke-opacity:0.69580871" />
<path
   fill="#000000"
   opacity="1"
   stroke="none"
   d="m 249.33214,139.86587 c -1.29927,-0.62675 -2.77577,-0.34658 -3.72649,-1.92147 1.98852,-1.46499 4.30889,-2.06798 6.636,-2.24662 2.18344,-0.16769 4.09672,-1.27824 6.31059,-1.33522 1.28188,-0.0331 1.5328,-1.43372 1.45055,-2.54339 -0.30358,-4.09622 1.51361,-7.93976 1.34817,-12.03245 -0.0535,-1.32619 0.54177,-2.64077 1.84968,-3.31795 1.12357,0.21415 1.32862,1.09069 1.4023,1.8511 0.42353,4.37192 1.85419,8.54974 2.4281,12.88514 0.26476,2.00021 1.28322,2.93008 3.26394,3.27946 3.17082,0.5593 6.36607,1.07903 9.40885,2.21328 0.67621,0.2521 1.38576,0.44299 1.66102,1.52164 -1.40062,1.63512 -3.63781,1.55093 -5.49323,1.91412 -1.93872,0.37948 -3.83971,0.92435 -5.7797,1.25792 -1.59296,0.27389 -2.33565,1.17556 -2.63262,2.64382 -0.55179,2.72799 -1.12141,5.45243 -1.67595,8.1799 -0.27626,1.35871 -0.78841,2.56057 -2.03723,3.31551 -1.48404,-0.3703 -1.22802,-1.61694 -1.43917,-2.61733 -0.66513,-3.15117 -1.35371,-6.29747 -2.00117,-9.45222 -0.26793,-1.30557 -1.1935,-1.63133 -2.33529,-1.84205 -2.81608,-0.51972 -5.61878,-1.1119 -8.63835,-1.75319 z"
   id="path11"
   style="fill:#6366f1;fill-opacity:1;stroke:#000000;stroke-width:0.54122;stroke-opacity:0.69580871" />
<path
   fill="#000000"
   opacity="1"
   stroke="none"
   d="m 252.52047,259.41091 c -1.41735,2.89247 -0.18533,6.16049 -1.90138,8.8999 -1.71306,-0.38584 -2.24018,-1.39594 -2.5469,-2.85404 -0.6269,-2.98024 -1.53934,-5.90029 -2.16975,-8.87993 -0.51292,-2.42438 -2.04583,-3.26837 -4.28288,-3.14598 -2.75627,0.15087 -5.23222,-1.30277 -7.96432,-1.29038 -0.62251,0.005 -1.19378,-0.40648 -1.30827,-1.32077 0.74809,-1.24116 2.05522,-1.74197 3.46475,-2.07856 2.27435,-0.54313 4.56443,-1.02712 6.82117,-1.6352 1.81224,-0.48827 2.7626,-1.54631 2.88927,-3.64944 0.24805,-4.11861 0.83734,-8.21813 1.34339,-12.31842 0.0926,-0.75083 0.0644,-1.67658 1.1645,-2.07554 1.45681,0.89771 1.869,2.31948 2.1553,3.99207 0.61948,3.61912 1.50436,7.19198 2.21404,10.79691 0.34051,1.72965 1.31225,2.29232 3.02295,2.28557 2.87573,-0.0106 5.76034,0.10864 8.55374,0.95514 0.84943,0.25743 1.74311,0.41315 2.33108,1.43662 -1.31693,1.58093 -3.25771,1.76509 -4.94175,2.39563 -1.84744,0.69171 -3.71933,1.35331 -5.62948,1.83347 -2.31568,0.58218 -3.2746,1.90936 -2.97452,4.27251 0.0885,0.69654 -0.11726,1.43042 -0.24094,2.38044 z"
   id="path12"
   style="fill:#6366f1;fill-opacity:1;stroke:#000000;stroke-width:0.54122;stroke-opacity:0.69580871" />
<path
   fill="#000000"
   opacity="1"
   stroke="none"
   d="m 532.00399,132.38573 c 1.03545,2.31853 3.07326,2.21374 4.75426,2.07144 3.9398,-0.33349 7.58077,1.45845 11.46496,1.32577 0.36881,-0.0129 0.7513,0.375 1.02102,0.51969 0.19143,1.0223 -0.38805,1.38696 -0.99793,1.50877 -2.54773,0.50882 -5.10456,1.25304 -7.67058,1.30635 -2.31953,0.0483 -4.38674,0.84744 -6.5756,1.25302 -1.47159,0.27269 -1.3677,1.47954 -1.35118,2.55655 0.0582,3.79721 -1.44283,7.42484 -1.19508,11.24908 0.0452,0.69469 -0.28848,1.40424 -1.2178,2.15293 -1.42571,-2.23946 -2.18155,-4.70682 -2.18952,-7.17767 -0.008,-2.51554 -1.14726,-4.68636 -1.42742,-7.08961 -0.16787,-1.44014 -1.44395,-1.59476 -2.7145,-1.5867 -2.70317,0.0164 -5.38662,-0.22616 -7.98075,-1.04755 -0.80904,-0.25622 -1.84452,-0.25351 -2.14499,-1.75636 2.04349,-1.12196 4.32812,-1.78453 6.68296,-2.00577 5.26433,-0.49463 6.3134,-1.46236 6.35836,-6.8053 0.0217,-2.57036 0.32793,-4.95937 2.42138,-7.34287 1.70554,3.58093 2.06793,7.16078 2.76241,10.86823 z"
   id="path13"
   style="fill:#6366f1;fill-opacity:1;stroke:#000000;stroke-width:0.54122;stroke-opacity:0.69580871" />
<path
   fill="#000000"
   opacity="1"
   stroke="none"
   d="m 446.17055,172.45741 c 0.10391,-1.02704 0.18367,-1.837 1.33761,-2.50834 1.58321,2.01628 1.95059,4.49675 2.24163,6.84203 0.62068,5.00128 1.25147,5.63008 6.27049,5.95358 3.03988,0.19594 6.05619,0.76869 9.07971,1.19599 0.46345,0.0655 0.80968,0.36908 1.04189,1.22048 -1.91887,1.35235 -4.37735,1.55567 -6.61527,2.00025 -2.09834,0.41686 -4.21782,0.8183 -6.32898,1.16036 -1.95601,0.31697 -2.36703,1.23144 -2.25312,2.89219 0.23613,3.44261 -0.50862,6.81095 -0.85039,10.20776 -0.11135,1.10723 -0.1025,2.37373 -1.1688,3.08305 -1.07519,-0.0469 -1.35089,-0.78715 -1.39913,-1.48474 -0.29107,-4.20838 -1.53031,-8.22991 -2.29136,-12.34324 -0.325,-1.75648 -1.07641,-2.17395 -2.67327,-2.20559 -3.30836,-0.0655 -6.68122,0.39683 -9.86912,-0.98948 -0.65862,-0.28644 -1.39505,-0.39971 -1.7527,-1.22179 0.30085,-1.40422 1.54666,-1.11869 2.53101,-1.37453 3.11011,-0.80823 6.36191,-0.86789 9.43876,-1.87918 1.65726,-0.54471 2.16804,-1.46802 2.04948,-3.21909 -0.16385,-2.42093 0.11325,-4.85684 1.21156,-7.32971 z"
   id="path14"
   style="fill:#6366f1;fill-opacity:1;stroke:#000000;stroke-width:0.54122;stroke-opacity:0.69580871" />
<path
   fill="#000000"
   opacity="1"
   stroke="none"
   d="m 502.80925,25.005763 c 2.82805,0 6.02086,-1.574446 5.96387,-7.081591 -0.0248,-2.38018 0.42188,-4.961802 2.40345,-7.492688 1.48237,2.76008 1.9185,5.478445 2.35623,8.085917 0.80911,4.820143 0.97339,5.092728 5.67308,5.207121 2.24976,0.05477 4.49611,0.282322 6.74175,0.460271 0.94646,0.07506 1.88313,0.3515 1.92292,1.488483 0.0385,1.102485 -0.82176,1.52044 -1.77066,1.703042 -2.46579,0.47453 -4.91948,1.059954 -7.40703,1.361779 -3.34282,0.405589 -3.87436,0.806125 -3.93981,4.10936 -0.054,2.723471 -0.57031,5.367213 -1.17995,8.002034 -0.16057,0.69377 -0.25465,1.447352 -1.48802,1.783779 -1.26874,-1.730522 -1.2242,-4.044488 -2.04361,-6.00318 -0.13334,-0.318738 -0.0749,-0.713744 -0.13024,-1.069561 -0.84867,-5.448649 -1.15441,-5.656293 -6.5751,-5.766902 -2.14977,-0.04383 -4.30151,-0.344433 -6.43552,-0.646841 -0.95044,-0.134635 -1.96319,-0.425186 -2.31897,-1.999491 2.56256,-1.050085 7.48539,-2.141532 8.22762,-2.141532 z"
   id="path15"
   style="fill:#6366f1;fill-opacity:1;stroke:#000000;stroke-width:0.54122;stroke-opacity:0.69580871" />
<path
   fill="#000000"
   opacity="1"
   stroke="none"
   d="m 258.2171,233.04445 c -1.09591,-3.05841 0.20258,-5.28677 2.117,-7.18354 1.4411,-1.4278 3.3043,-1.75197 5.27142,-1.05782 2.99389,1.05637 4.14529,2.83319 4.01088,6.1837 -0.10226,2.55134 -2.04392,5.01447 -4.35322,5.5227 -3.01237,0.66296 -5.24981,-0.39606 -7.04608,-3.46504 z"
   id="path16"
   style="fill:#6366f1;fill-opacity:1;stroke:#000000;stroke-width:0.54122;stroke-opacity:0.69580871" />
<path
   fill="#000000"
   opacity="1"
   stroke="none"
   d="m 414.6856,195.69286 c -2.32929,-2.15037 -2.81056,-6.40226 -1.09925,-8.33439 2.37249,-2.67866 6.13157,-3.15787 8.68869,-1.10769 2.35328,1.8868 2.77239,5.64194 0.92178,8.25928 -1.79523,2.53909 -5.5397,3.12744 -8.51122,1.1828 z"
   id="path17"
   style="fill:#6366f1;fill-opacity:1;stroke:#000000;stroke-width:0.54122;stroke-opacity:0.69580871" />
<path
   fill="#000000"
   opacity="1"
   stroke="none"
   d="m 307.54918,99.352938 c 3.44936,1.014482 5.62053,4.275362 4.76626,6.868392 -1.23919,3.76148 -5.10114,5.64629 -8.60346,4.19888 -2.80683,-1.15996 -4.26333,-5.0479 -2.7621,-8.02667 1.28067,-2.541127 3.66893,-3.274333 6.5993,-3.040602 z"
   id="path18"
   style="fill:#6366f1;fill-opacity:1;stroke:#000000;stroke-width:0.54122;stroke-opacity:0.69580871" />
<path
   fill="#000000"
   opacity="1"
   stroke="none"
   d="m 429.14492,56.748292 c -2.30828,-3.268671 -2.24168,-5.929642 0.0563,-8.127701 2.09115,-2.000137 5.58164,-2.383392 7.66544,-0.841611 2.54775,1.885052 3.31569,6.407686 1.46729,8.641169 -2.25522,2.725019 -6.37053,2.944659 -9.18909,0.328143 z"
   id="path19"
   style="fill:#6366f1;fill-opacity:1;stroke:#000000;stroke-width:0.54122;stroke-opacity:0.69580871" />
<path
   fill="#000000"
   opacity="1"
   stroke="none"
   d="m 531.68348,90.192699 c 0.0885,-3.452596 1.34717,-5.447437 3.82402,-6.276836 2.4706,-0.827274 5.65555,-0.08384 6.87629,1.657181 1.4671,2.092405 1.66313,4.419709 0.45058,6.584195 -1.33706,2.386726 -3.67961,3.424172 -6.3632,2.983481 -2.58686,-0.42482 -4.37301,-1.964917 -4.78769,-4.948021 z"
   id="path20"
   style="fill:#6366f1;fill-opacity:1;stroke:#000000;stroke-width:0.54122;stroke-opacity:0.69580871" />
<path
   fill="#000000"
   opacity="1"
   stroke="none"
   d="m 528.91892,117.60322 c -3.88841,2.74822 -5.99998,2.80366 -8.27771,0.37052 -2.64781,-2.82848 -2.83434,-5.45362 -0.56057,-7.88922 2.12992,-2.28147 5.76905,-2.6302 8.11896,-0.77803 2.58085,2.03422 2.91051,5.14999 0.71932,8.29673 z"
   id="path21"
   style="fill:#6366f1;fill-opacity:1;stroke:#000000;stroke-width:0.54122;stroke-opacity:0.69580871" />
<path
   fill="#000000"
   opacity="1"
   stroke="none"
   d="m 477.43804,210.59706 c -0.0381,3.83479 -1.11756,5.3004 -4.45323,6.28892 -2.22964,0.66075 -4.79683,-0.33418 -6.01007,-2.46843 -1.17115,-2.06017 -1.68915,-4.20852 -0.039,-6.30485 1.56017,-1.98199 3.58838,-3.05281 6.12534,-2.5197 2.51517,0.52852 4.15986,2.03796 4.3769,5.00406 z"
   id="path22"
   style="fill:#6366f1;fill-opacity:1;stroke:#000000;stroke-width:0.54122;stroke-opacity:0.69580871" />
<path
   fill="#000000"
   opacity="1"
   stroke="none"
   d="m 316.88614,70.323657 c -4.40536,-2.380429 -5.3152,-5.855145 -2.37102,-9.00521 1.61368,-1.72653 3.55042,-3.147258 6.18063,-1.909963 3.01081,1.416368 4.44859,3.642069 4.0747,6.280034 -0.32655,2.303954 -2.84181,4.519578 -5.52515,4.79327 -0.70598,0.07203 -1.43184,-0.05113 -2.35916,-0.158214 z"
   id="path23"
   style="fill:#6366f1;fill-opacity:1;stroke:#000000;stroke-width:0.54122;stroke-opacity:0.69580871" />
<path
   fill="#000000"
   opacity="1"
   stroke="none"
   d="m 330.44618,250.49531 c 1.87014,-1.88822 3.93647,-2.95833 6.40865,-2.4766 2.80614,0.54671 5.08526,3.82538 4.60839,6.28242 -0.56169,2.89395 -4.09789,5.38286 -7.07368,4.97872 -2.69794,-0.36642 -5.09648,-3.66608 -4.71933,-6.58565 0.0895,-0.69329 0.42969,-1.35426 0.77597,-2.19889 z"
   id="path24"
   style="fill:#6366f1;fill-opacity:1;stroke:#000000;stroke-width:0.54122;stroke-opacity:0.69580871" />
<path
   fill="#000000"
   opacity="1"
   stroke="none"
   d="m 429.49966,93.884954 c -3.74783,1.068432 -6.21128,0.155273 -7.11485,-2.503621 -1.32804,-3.908119 0.13191,-6.799905 4.16425,-8.248001 2.35618,-0.846133 5.50233,0.616133 6.34702,3.098345 1.05622,3.103884 0.6605,6.198852 -3.39642,7.653277 z"
   id="path25"
   style="fill:#6366f1;fill-opacity:1;stroke:#000000;stroke-width:0.54122;stroke-opacity:0.69580871" />
<path
   fill="#000000"
   opacity="1"
   stroke="none"
   d="m 442.30081,34.827513 c -1.00053,-3.181336 0.3649,-6.210084 3.05512,-7.152591 3.31105,-1.159996 6.90173,0.406596 7.98183,3.482399 0.91708,2.611693 -0.72052,5.922595 -3.46146,6.998314 -3.13637,1.230903 -5.99906,0.0316 -7.57549,-3.328122 z"
   id="path26"
   style="fill:#6366f1;fill-opacity:1;stroke:#000000;stroke-width:0.54122;stroke-opacity:0.69580871" />
<path
   fill="#000000"
   opacity="1"
   stroke="none"
   d="m 498.57169,38.175215 c 4.31628,0.11399 6.32828,1.730013 6.45215,4.997171 0.11891,3.138306 -2.36834,5.852595 -5.55287,6.059562 -3.35156,0.217827 -5.84715,-1.933449 -6.14332,-5.295719 -0.26242,-2.978845 1.74089,-5.265503 5.24404,-5.761014 z"
   id="path27"
   style="fill:#6366f1;fill-opacity:1;stroke:#000000;stroke-width:0.54122;stroke-opacity:0.69580871" />
<path
   fill="#000000"
   opacity="1"
   stroke="none"
   d="m 414.94607,206.81553 c 2.55092,4.58232 0.43757,9.0012 -4.21671,9.26365 -3.73103,0.21042 -6.40178,-2.04615 -6.37756,-5.38855 0.0231,-3.20396 3.22053,-6.0343 6.61385,-5.6844 1.39092,0.1434 2.90968,0.29357 3.98042,1.8093 z"
   id="path28"
   style="fill:#6366f1;fill-opacity:1;stroke:#000000;stroke-width:0.54122;stroke-opacity:0.69580871" />
<path
   fill="#000000"
   opacity="1"
   stroke="none"
   d="m 375.60092,75.099294 c 2.96315,-0.940957 6.12573,0.472031 6.9936,2.941737 1.21185,3.44844 -0.1814,6.332385 -3.7074,7.67386 -2.5064,0.953604 -5.86711,-0.474134 -6.95967,-2.956676 -1.35349,-3.075531 0.0216,-6.064149 3.67347,-7.658921 z"
   id="path29"
   style="fill:#6366f1;fill-opacity:1;stroke:#000000;stroke-width:0.54122;stroke-opacity:0.69580871" />
<path
   fill="#000000"
   opacity="1"
   stroke="none"
   d="m 235.36233,200.23963 c -2.2386,-2.49452 -2.51352,-6.17507 -0.79356,-8.24263 1.7961,-2.15903 4.79534,-2.83998 7.05647,-1.60214 2.66834,1.46077 3.66832,5.05467 2.22655,8.00213 -1.53257,3.13318 -4.52234,3.83805 -8.48946,1.84264 z"
   id="path30"
   style="fill:#6366f1;fill-opacity:1;stroke:#000000;stroke-width:0.54122;stroke-opacity:0.69580871" />
<path
   fill="#000000"
   opacity="1"
   stroke="none"
   d="m 353.45658,221.83992 c -2.9648,-2.64618 -3.20335,-6.55775 -0.72567,-8.83137 2.6022,-2.38789 6.25962,-2.23301 8.3308,0.3528 1.26257,1.57627 1.56581,5.40602 0.54788,6.91965 -1.21004,1.79926 -4.72878,2.77672 -6.92263,1.93466 -0.33403,-0.12823 -0.69147,-0.19544 -1.23038,-0.37574 z"
   id="path31"
   style="fill:#6366f1;fill-opacity:1;stroke:#000000;stroke-width:0.54122;stroke-opacity:0.69580871" />
<path
   fill="#000000"
   opacity="1"
   stroke="none"
   d="m 411.38007,63.105826 c -3.42476,0.471147 -6.39698,-1.883891 -6.7681,-5.117392 -0.30224,-2.633345 2.41504,-5.698056 5.41576,-6.108245 2.66544,-0.364352 5.85662,2.36588 6.15927,5.269585 0.2494,2.392815 -1.44508,4.548668 -4.80693,5.956052 z"
   id="path32"
   style="fill:#6366f1;fill-opacity:1;stroke:#000000;stroke-width:0.54122;stroke-opacity:0.69580871" />
<path
   fill="#000000"
   opacity="1"
   stroke="none"
   d="m 540.70702,55.247719 c -3.46333,-0.708792 -5.08615,-3.278387 -4.558,-6.867726 0.39562,-2.688832 2.93944,-4.380146 6.26033,-4.162266 2.63007,0.172452 4.79537,2.706745 4.76683,5.578903 -0.0305,3.049699 -2.25507,5.293519 -5.42914,5.470123 -0.26861,0.01461 -0.53896,-4.39e-4 -1.04002,-0.019 z"
   id="path33"
   style="fill:#6366f1;fill-opacity:1;stroke:#000000;stroke-width:0.54122;stroke-opacity:0.69580871" />
<path
   fill="#000000"
   opacity="1"
   stroke="none"
   d="m 328.35434,219.99129 c 2.83478,-0.73115 4.76432,0.28962 6.11249,2.48713 1.33683,2.17895 1.60514,4.33426 -0.42904,6.34824 -1.75216,1.73479 -5.18747,2.59723 -7.17674,1.47632 -2.22266,-1.25241 -3.32393,-3.27804 -2.88596,-5.86494 0.39554,-2.33629 1.89435,-3.77724 4.37925,-4.44675 z"
   id="path34"
   style="fill:#6366f1;fill-opacity:1;stroke:#000000;stroke-width:0.54122;stroke-opacity:0.69580871" />
<path
   fill="#000000"
   opacity="1"
   stroke="none"
   d="m 297.26489,246.06431 c 0.31347,-4.11425 1.49103,-5.56575 4.66988,-5.97178 3.58458,-0.45786 5.51988,0.46079 6.08109,2.88653 0.90859,3.92731 -0.24136,6.53253 -3.42216,7.75288 -2.65236,1.01764 -5.17046,-0.18276 -6.77392,-3.24059 -0.20691,-0.39465 -0.36463,-0.81513 -0.55489,-1.42704 z"
   id="path35"
   style="fill:#6366f1;fill-opacity:1;stroke:#000000;stroke-width:0.54122;stroke-opacity:0.69580871" />
<path
   fill="#000000"
   opacity="1"
   stroke="none"
   d="m 380.90153,51.706154 c 2.76649,-0.5108 5.058,-0.263947 6.53896,2.244166 1.06336,1.800799 1.55543,3.576381 0.27649,5.544863 -1.5,2.308715 -3.60391,3.035357 -6.23018,2.860883 -2.81694,-0.187156 -3.75042,-2.173995 -4.33029,-4.434381 -0.62507,-2.436567 0.70042,-4.641356 3.74502,-6.215531 z"
   id="path36"
   style="fill:#6366f1;fill-opacity:1;stroke:#000000;stroke-width:0.54122;stroke-opacity:0.69580871" />
<path
   fill="#000000"
   opacity="1"
   stroke="none"
   d="m 306.29689,133.47504 c -2.22563,2.64657 -6.19914,3.08959 -8.45789,1.11783 -2.48442,-2.16882 -2.5063,-5.49995 -0.0549,-8.38679 1.67622,-1.97409 5.56998,-1.98321 7.79723,0.0995 2.18907,2.04698 1.50505,4.5381 0.71574,7.16943 z"
   id="path37"
   style="fill:#6366f1;fill-opacity:1;stroke:#000000;stroke-width:0.54122;stroke-opacity:0.69580871" />
<path
   fill="#000000"
   opacity="1"
   stroke="none"
   d="m 297.74232,191.57766 c -1.42792,3.00695 -3.0426,3.78391 -5.853,2.94341 -2.33566,-0.6985 -3.28227,-2.34412 -3.05741,-4.68907 0.28712,-2.99358 2.63978,-4.42804 6.14648,-3.80666 2.3466,0.41581 3.44761,2.48091 2.76393,5.55232 z"
   id="path38"
   style="fill:#6366f1;fill-opacity:1;stroke:#000000;stroke-width:0.54122;stroke-opacity:0.69580871" />
<path
   fill="#000000"
   opacity="1"
   stroke="none"
   d="m 285.60146,269.40372 c -0.90206,-2.48279 -0.009,-4.16929 1.84152,-5.49797 1.55234,-1.11409 3.13666,-1.16988 4.7263,-0.0803 1.83496,1.2577 1.85152,3.12376 1.6259,5.0403 -0.21648,1.83846 -1.58961,2.36752 -3.13532,2.81602 -2.27798,0.66092 -3.79722,-0.24211 -5.0584,-2.27801 z"
   id="path39"
   style="fill:#6366f1;fill-opacity:1;stroke:#000000;stroke-width:0.54122;stroke-opacity:0.69580871" />
<path
   fill="#000000"
   opacity="1"
   stroke="none"
   d="m 339.25956,127.55659 c 2.75138,0.40839 3.98722,2.10055 4.12454,4.46781 0.10663,1.83786 -0.81213,3.25557 -2.72332,3.88479 -2.40272,0.79101 -4.57261,-0.009 -5.7125,-2.19792 -1.03036,-1.97883 -0.25817,-4.01075 2.11391,-5.38104 0.60732,-0.35084 1.31943,-0.52035 2.19737,-0.77364 z"
   id="path40"
   style="fill:#6366f1;fill-opacity:1;stroke:#000000;stroke-width:0.54122;stroke-opacity:0.69580871" />
<path
   fill="#000000"
   opacity="1"
   stroke="none"
   d="m 444.4791,102.89421 c -0.45145,-2.922623 0.79527,-5.037488 3.0628,-5.560014 2.47809,-0.571036 4.48234,0.639822 5.3332,3.327694 0.69552,2.19717 -0.53317,3.67925 -2.23611,4.63468 -2.16199,1.21298 -4.46652,0.26001 -6.15989,-2.40236 z"
   id="path41"
   style="fill:#6366f1;fill-opacity:1;stroke:#000000;stroke-width:0.54122;stroke-opacity:0.69580871" />
<path
   fill="#000000"
   opacity="1"
   stroke="none"
   d="m 346.56301,176.95712 c -3.54298,0.12952 -4.80364,-0.75489 -5.21408,-3.45292 -0.357,-2.34685 0.89739,-4.18413 3.26949,-4.78881 2.0064,-0.51148 4.12569,0.63637 4.96549,2.6894 0.90176,2.20464 -0.11077,4.1889 -3.0209,5.55233 z"
   id="path42"
   style="fill:#6366f1;fill-opacity:1;stroke:#000000;stroke-width:0.54122;stroke-opacity:0.69580871" />
<path
   fill="#000000"
   opacity="1"
   stroke="none"
   d="m 550.00065,106.40751 c 0.27225,2.84468 -1.23335,4.85008 -3.65007,5.15836 -2.34564,0.29922 -4.24629,-1.13552 -4.77005,-3.76677 -0.44355,-2.22823 0.74433,-3.66435 2.69847,-4.40816 2.69007,-1.02388 4.44981,-0.0817 5.72165,3.01657 z"
   id="path43"
   style="fill:#6366f1;fill-opacity:1;stroke:#000000;stroke-width:0.54122;stroke-opacity:0.69580871" />
<path
   fill="#000000"
   opacity="1"
   stroke="none"
   d="m 239.71972,219.64239 c -2.09751,-2.00986 -1.80686,-4.18208 -0.62179,-6.21522 1.09612,-1.88053 2.95852,-1.79955 4.78187,-1.12824 2.50079,0.92076 3.41498,3.02691 2.39072,5.37297 -1.13477,2.5992 -3.59996,3.40136 -6.5508,1.97049 z"
   id="path44"
   style="fill:#6366f1;fill-opacity:1;stroke:#000000;stroke-width:0.54122;stroke-opacity:0.69580871" />
<path
   fill="#000000"
   opacity="1"
   stroke="none"
   d="m 513.7843,78.316093 c -2.1005,1.134077 -3.98273,1.33616 -5.54332,-0.471453 -1.26018,-1.459715 -1.76392,-3.146489 -0.7514,-4.976752 1.06323,-1.922028 2.81324,-2.343175 4.84511,-2.130582 1.97029,0.206122 2.66094,1.818902 3.25341,3.252804 0.71311,1.725931 -0.28049,3.104391 -1.8038,4.325983 z"
   id="path45"
   style="fill:#6366f1;fill-opacity:1;stroke:#000000;stroke-width:0.54122;stroke-opacity:0.69580871" />
<path
   fill="#000000"
   opacity="1"
   stroke="none"
   d="m 516.50053,152.61341 c 2.63139,-0.47494 4.22905,0.65153 5.06239,2.79255 0.66645,1.71229 -0.0928,3.14741 -1.44677,4.25915 -2.16037,1.7739 -4.67707,1.56965 -6.1142,-0.46646 -1.34053,-1.89924 -0.74288,-4.60211 1.34355,-6.02184 0.29356,-0.19974 0.62808,-0.33924 1.15503,-0.5634 z"
   id="path46"
   style="fill:#6366f1;fill-opacity:1;stroke:#000000;stroke-width:0.54122;stroke-opacity:0.69580871" />
<path
   fill="#000000"
   opacity="1"
   stroke="none"
   d="m 259.37727,181.24324 c -2.13951,0.43603 -3.82809,0.10486 -4.90892,-1.69603 -0.8711,-1.45138 -0.68259,-2.97366 0.13372,-4.3579 1.22778,-2.0821 3.42026,-2.6835 5.29934,-1.5748 2.33075,1.37522 2.89258,3.41379 1.5687,5.72458 -0.45152,0.78815 -0.94457,1.54304 -2.09281,1.90415 z"
   id="path47"
   style="fill:#6366f1;fill-opacity:1;stroke:#000000;stroke-width:0.54122;stroke-opacity:0.69580871" />
<path
   fill="#000000"
   opacity="1"
   stroke="none"
   d="m 375.13485,216.85537 c 2.29206,-0.80549 4.41986,-1.37357 5.93149,0.93558 1.14482,1.74886 0.71328,4.31125 -0.77404,5.35002 -2.00224,1.39831 -4.41288,1.24991 -5.87311,-0.3616 -1.81026,-1.99777 -1.68385,-3.37567 0.71566,-5.924 z"
   id="path48"
   style="fill:#6366f1;fill-opacity:1;stroke:#000000;stroke-width:0.54122;stroke-opacity:0.69580871" />
<path
   fill="#000000"
   opacity="1"
   stroke="none"
   d="m 463.83327,44.583024 c 2.59889,1.895051 3.28276,3.758753 2.17056,5.425872 -1.55462,2.330226 -4.19556,3.018275 -6.27729,1.684853 -2.00312,-1.283056 -2.01728,-3.38102 -1.30872,-5.023404 0.87477,-2.027609 2.89693,-2.81617 5.41545,-2.087321 z"
   id="path49"
   style="fill:#6366f1;fill-opacity:1;stroke:#000000;stroke-width:0.54122;stroke-opacity:0.69580871" />
<path
   fill="#000000"
   opacity="1"
   stroke="none"
   d="m 437.21517,227.69662 c -1.17493,-2.46518 -0.51947,-4.26382 1.63251,-5.36812 2.06046,-1.05729 5.02246,-0.36 5.72497,1.35453 0.74454,1.81719 0.82852,3.72955 -0.98667,5.11464 -1.70004,1.29727 -4.5365,0.84545 -6.37081,-1.10105 z"
   id="path50"
   style="fill:#6366f1;fill-opacity:1;stroke:#000000;stroke-width:0.54122;stroke-opacity:0.69580871" />
<path
   fill="#000000"
   opacity="1"
   stroke="none"
   d="m 393.72674,159.55884 c -2.73264,0.26084 -4.13607,-1.23651 -4.62643,-3.3892 -0.41132,-1.80554 0.64492,-3.19017 2.28001,-4.15475 1.64961,-0.97315 3.09305,-0.71656 4.43311,0.45697 2.25773,1.97721 1.29509,5.51547 -2.08669,7.08698 z"
   id="path51"
   style="fill:#6366f1;fill-opacity:1;stroke:#000000;stroke-width:0.54122;stroke-opacity:0.69580871" />
<path
   fill="#000000"
   opacity="1"
   stroke="none"
   d="m 501.70223,133.42159 c 1.80829,1.34857 2.66355,2.95556 2.01399,4.99903 -0.5423,1.70582 -2.03557,2.10935 -3.64048,2.1975 -2.28488,0.1255 -4.12014,-1.31831 -4.36686,-3.43483 -0.18617,-1.59687 1.71681,-3.66681 3.67669,-3.90593 0.69358,-0.0845 1.41244,0.0378 2.31666,0.14414 z"
   id="path52"
   style="fill:#6366f1;fill-opacity:1;stroke:#000000;stroke-width:0.54122;stroke-opacity:0.69580871" />
<path
   fill="#000000"
   opacity="1"
   stroke="none"
   d="m 355.26131,143.19995 c 1.68181,3.39646 0.93628,5.35063 -2.26297,6.4937 -1.88573,0.67379 -3.92387,-0.5154 -4.4762,-2.71535 -0.46261,-1.8426 0.15656,-3.40876 1.70092,-4.47162 1.72395,-1.18647 3.39327,-0.8949 5.03825,0.69327 z"
   id="path53"
   style="fill:#6366f1;fill-opacity:1;stroke:#000000;stroke-width:0.54122;stroke-opacity:0.69580871" />
<path
   fill="#000000"
   opacity="1"
   stroke="none"
   d="m 355.38652,102.02532 c -0.51455,0.422 -0.8482,0.76159 -1.25292,0.92554 -1.92906,0.78135 -3.76924,0.66525 -5.12206,-1.05525 -1.21636,-1.54691 -0.99383,-3.265864 0.15765,-4.748063 1.4123,-1.817934 3.50121,-1.474441 5.21873,-0.878807 1.92507,0.667619 1.96099,2.604538 1.7038,4.38069 -0.0612,0.4222 -0.36487,0.80923 -0.70517,1.37589 z"
   id="path54"
   style="fill:#6366f1;fill-opacity:1;stroke:#000000;stroke-width:0.54122;stroke-opacity:0.69580871" />
<path
   fill="#000000"
   opacity="1"
   stroke="none"
   d="m 314.13598,196.56417 c 1.56041,1.87649 1.97642,3.89026 0.46713,5.53325 -1.00081,1.08945 -2.60417,1.98207 -4.38876,1.32878 -1.98551,-0.72684 -3.03105,-3.06523 -2.29281,-5.09237 0.83447,-2.29136 3.37536,-3.09553 6.21444,-1.76966 z"
   id="path55"
   style="fill:#6366f1;fill-opacity:1;stroke:#000000;stroke-width:0.54122;stroke-opacity:0.69580871" />
<path
   fill="#000000"
   opacity="1"
   stroke="none"
   d="m 246.7793,154.69533 c 2.19625,-1.12841 3.64364,-0.25097 4.81448,1.32791 1.30021,1.75335 0.76425,3.39102 -0.51574,4.88495 -1.25774,1.46798 -2.94387,1.3526 -4.45184,0.73671 -1.60535,-0.65562 -2.49147,-2.02277 -2.17916,-3.89485 0.22247,-1.33379 1.11875,-2.19653 2.33226,-3.05472 z"
   id="path56"
   style="fill:#6366f1;fill-opacity:1;stroke:#000000;stroke-width:0.54122;stroke-opacity:0.69580871" />
<path
   fill="#000000"
   opacity="1"
   stroke="none"
   d="m 492.47696,102.19762 c 0.39124,-2.782391 1.96253,-3.931205 4.50094,-3.855901 1.73568,0.05149 2.90446,0.834324 3.25519,2.624121 0.4086,2.08526 0.0693,4.00022 -2.23498,4.51699 -3.01119,0.67534 -4.86202,0.13281 -5.52115,-3.28521 z"
   id="path57"
   style="fill:#6366f1;fill-opacity:1;stroke:#000000;stroke-width:0.54122;stroke-opacity:0.69580871" />
<path
   fill="#000000"
   opacity="1"
   stroke="none"
   d="m 472.85112,21.366725 c -0.26965,-2.27896 0.0444,-4.036544 2.41362,-4.630997 2.44125,-0.612534 4.51328,0.239007 5.08798,2.25931 0.54641,1.920968 -0.071,3.62204 -1.83437,4.603463 -1.97869,1.101329 -4.12557,0.248897 -5.66723,-2.231776 z"
   id="path58"
   style="fill:#6366f1;fill-opacity:1;stroke:#000000;stroke-width:0.54122;stroke-opacity:0.69580871" />
<path
   fill="#000000"
   opacity="1"
   stroke="none"
   d="m 350.04646,55.359297 c -2.54577,-2.389646 -2.76514,-3.770051 -1.05405,-5.548701 1.63166,-1.696036 3.56688,-1.852112 5.21811,-0.372965 1.18804,1.064221 1.71387,2.443296 0.92166,3.873568 -1.03537,1.869279 -2.56087,3.04347 -5.08572,2.048098 z"
   id="path59"
   style="fill:#6366f1;fill-opacity:1;stroke:#000000;stroke-width:0.54122;stroke-opacity:0.69580871" />
<path
   fill="#000000"
   opacity="1"
   stroke="none"
   d="m 464.79407,161.03564 c 2.32959,2.76947 2.27504,4.3671 0.0534,6.02054 -1.40845,1.04826 -2.82353,1.11896 -4.24591,0.16441 -1.4663,-0.98407 -1.63839,-2.49535 -1.39684,-4.08232 0.26259,-1.72553 1.48165,-2.32076 3.05688,-2.49347 0.81493,-0.0893 1.61063,-0.19514 2.53247,0.39085 z"
   id="path60"
   style="fill:#6366f1;fill-opacity:1;stroke:#000000;stroke-width:0.54122;stroke-opacity:0.69580871" />
<path
   fill="#000000"
   opacity="1"
   stroke="none"
   d="m 523.15068,11.911407 c -2.92065,-0.309892 -3.99992,-1.592378 -3.78262,-4.2059021 0.15764,-1.8952364 1.85797,-3.170747 4.01621,-3.0126786 1.93295,0.1415728 3.40935,1.8357474 3.26921,3.8391308 -0.14102,2.0171109 -1.50672,2.9004069 -3.5028,3.3794499 z"
   id="path61"
   style="fill:#6366f1;fill-opacity:1;stroke:#000000;stroke-width:0.54122;stroke-opacity:0.69580871" />
<path
   fill="#000000"
   opacity="1"
   stroke="none"
   d="m 477.94941,182.55047 c -1.7572,1.43498 -3.46904,1.52724 -5.10098,0.34466 -1.56659,-1.13524 -1.50386,-2.86455 -0.91764,-4.41789 0.61199,-1.62146 2.15695,-2.11968 3.78172,-2.03959 2.76203,0.13608 3.78019,2.73321 2.2369,6.11282 z"
   id="path62"
   style="fill:#6366f1;fill-opacity:1;stroke:#000000;stroke-width:0.54122;stroke-opacity:0.69580871" />
<path
   fill="#000000"
   opacity="1"
   stroke="none"
   d="m 273.27141,113.31485 c 0.88589,-2.10001 2.09424,-3.3851 4.40005,-2.87692 1.44913,0.31932 2.41358,1.15112 2.70105,2.64258 0.44173,2.29182 -0.94011,4.27441 -3.1,4.4853 -2.57252,0.25119 -3.90806,-1.08132 -4.0011,-4.25096 z"
   id="path63"
   style="fill:#6366f1;fill-opacity:1;stroke:#000000;stroke-width:0.54122;stroke-opacity:0.69580871" />
<path
   fill="#000000"
   opacity="1"
   stroke="none"
   d="m 397.04376,33.836508 c -0.40397,-2.552998 0.51456,-4.162427 2.83356,-4.592418 1.673,-0.310192 3.27325,0.250742 3.9834,1.977509 0.76056,1.849398 0.50913,3.557047 -1.44889,4.595504 -2.11758,1.123063 -3.95063,0.494734 -5.36807,-1.980595 z"
   id="path64"
   style="fill:#6366f1;fill-opacity:1;stroke:#000000;stroke-width:0.54122;stroke-opacity:0.69580871" />
<path
   fill="#000000"
   opacity="1"
   stroke="none"
   d="m 365.46943,248.79166 c -3.10649,-1.02361 -2.41,-3.37384 -1.80195,-5.21849 0.59713,-1.81175 2.38682,-2.4326 4.24481,-1.72451 2.04473,0.7792 2.87438,2.36545 2.32057,4.53238 -0.62298,2.43731 -2.72153,2.22936 -4.76343,2.41062 z"
   id="path65"
   style="fill:#6366f1;fill-opacity:1;stroke:#000000;stroke-width:0.54122;stroke-opacity:0.69580871" />
<text
   style="font-weight:bold;font-stretch:expanded;font-size:133.984px;font-family:'Test Söhne Breit';-inkscape-font-specification:'Test Söhne Breit Bold Expanded';writing-mode:lr-tb;direction:ltr;fill:#6366f1;stroke-width:1.79442;paint-order:fill markers stroke;fill-opacity:1;stroke:#000000;stroke-opacity:0.69580871"
   x="97.028122"
   y="384.82925"
   id="text1"><tspan
     id="tspan1"
     x="97.028122"
     y="384.82925"
     style="stroke-width:1.79442;fill:#6366f1;fill-opacity:1;stroke:#000000;stroke-opacity:0.69580871">IntelNav</tspan></text></svg>
