<?xml version="1.0" encoding="UTF-8" standalone="no"?>
<svg
   version="1.1"
   id="Layer_1"
   x="0px"
   y="0px"
   width="100%"
   viewBox="0 0 736 736"
   enable-background="new 0 0 736 736"
   xml:space="preserve"
   sodipodi:docname="file.svg"
   inkscape:version="1.4.3 (0d15f75042, 2025-12-25)"
   xmlns:inkscape="http://www.inkscape.org/namespaces/inkscape"
   xmlns:sodipodi="http://sodipodi.sourceforge.net/DTD/sodipodi-0.dtd"
   xmlns="http://www.w3.org/2000/svg"
   xmlns:svg="http://www.w3.org/2000/svg"><defs
   id="defs65"><rect
     x="277.84"
     y="92"
     width="326.6"
     height="115.92"
     id="rect65" /></defs><sodipodi:namedview
   id="namedview65"
   pagecolor="#ffffff"
   bordercolor="#000000"
   borderopacity="0.25"
   inkscape:showpageshadow="2"
   inkscape:pageopacity="0.0"
   inkscape:pagecheckerboard="0"
   inkscape:deskcolor="#d1d1d1"
   inkscape:zoom="2"
   inkscape:cx="344.5"
   inkscape:cy="349.5"
   inkscape:window-width="1920"
   inkscape:window-height="1011"
   inkscape:window-x="0"
   inkscape:window-y="0"
   inkscape:window-maximized="1"
   inkscape:current-layer="Layer_1" />
<path
   fill="#d97757"
   opacity="1"
   stroke="none"
   d="m 414.97694,301.32573 c -4.37658,3.75703 -9.47954,6.15664 -14.32274,8.96935 -4.21697,2.44902 -8.38899,4.9521 -12.24084,7.97238 -4.29424,3.36716 -9.22331,5.64283 -14.13769,7.92803 -3.55682,1.65394 -7.10272,3.33137 -10.73621,5.03717 0.72432,0.49346 1.5856,0.72371 1.81621,1.63944 0.15302,0.60755 0.0886,1.22651 -0.1634,1.73914 -0.51765,1.05317 -1.52518,1.40951 -2.60557,1.23161 -1.10321,-0.18164 -1.6716,-1.74007 -1.38397,-3.43326 -5.66638,2.33124 -11.70172,3.56386 -17.35722,5.98568 -3.40352,1.45747 -7.1577,2.04729 -10.60479,3.51462 -2.38644,1.01586 -4.75149,2.0681 -7.29645,2.72209 -5.57907,1.4337 -11.23594,2.06923 -16.95933,1.7082 -2.89531,-0.18262 -5.67661,-1.00574 -7.79521,-3.32484 -1.16489,-1.27514 -1.78485,-2.78954 -2.01192,-4.36739 -0.32765,-2.27674 -0.23655,-4.57686 0.12876,-6.90108 0.91258,-5.80614 4.54368,-10.28612 7.12659,-15.27776 0.44993,-0.8695 1.06607,-1.65492 1.35403,-2.70485 -0.56493,-0.42668 -1.28199,-0.68407 -1.63944,-1.38827 -0.71156,-1.40183 -0.28837,-3.5381 0.9213,-4.38186 1.07923,-0.75275 3.32921,-0.41713 4.23184,0.84262 0.50336,0.70249 1.85257,0.72891 1.64535,1.85299 -0.15655,0.84915 -0.59694,1.66768 -1.01576,2.44327 -2.64755,4.90296 -4.78058,10.02047 -6.33462,15.36675 -0.54514,1.87541 -1.0913,3.8095 -1.19472,5.74048 -0.15308,2.85813 3.27326,5.66986 6.25668,5.44511 4.12536,-0.31078 8.26702,-0.51319 12.34903,-1.19486 3.91404,-0.65363 7.78986,-1.53352 11.68983,-2.27533 1.78808,-0.34013 3.58537,-0.73021 5.39386,-0.83672 1.76777,-0.1041 3.38041,-0.56364 4.94035,-1.31785 3.24259,-1.56773 6.76994,-2.32949 10.12394,-3.59057 5.13171,-1.92951 9.91965,-4.51378 14.72753,-7.10947 4.79727,-2.58996 9.76988,-4.85379 14.64759,-7.29663 2.99992,-1.50242 5.7836,-3.37691 8.54489,-5.26503 5.00809,-3.42443 10.23418,-6.50272 15.31785,-9.80286 4.54963,-2.95346 8.79043,-6.34909 12.93277,-9.85667 0.37296,-0.31581 0.75953,-0.6288 1.18135,-0.87058 0.62514,-0.35836 1.3338,-0.9096 1.99198,-0.19701 0.62293,0.67445 0.16784,1.44952 -0.23045,2.03712 -0.54894,0.80985 -1.22122,1.54732 -1.90706,2.25106 -2.33871,2.39968 -4.77054,4.70309 -7.38434,6.96578 z"
   id="path1"
   style="fill:#d97757;fill-opacity:1;stroke-width:0.296268;stroke:none;stroke-opacity:0" />
<path
   fill="#d97757"
   opacity="1"
   stroke="none"
   d="m 393.84778,300.32301 c 1.0752,-0.79077 2.0634,-1.52175 3.30152,-2.4376 -1.18473,-0.13269 -2.24716,0.0981 -3.01671,-0.74759 -0.69051,-0.75883 -1.23881,-1.52991 -1.1707,-2.60958 0.0844,-1.33752 1.29002,-2.56703 2.69285,-2.73455 2.10064,-0.25087 2.65647,0.30275 3.94329,3.94158 0.62927,0.0468 0.94239,-0.46128 1.32007,-0.80942 0.87823,-0.80954 1.82107,-1.50502 2.92111,-1.98769 0.55357,-0.24291 1.10164,-0.58908 1.56749,0.0915 0.44751,0.65373 0.42246,1.26088 -0.20918,1.83663 -1.82136,1.66021 -3.69492,3.27261 -5.41059,5.03735 -3.68336,3.78868 -8.47237,5.88076 -12.88609,8.54012 -2.37063,1.42834 -4.53131,3.14081 -6.83211,4.65251 -4.37769,2.8763 -9.31575,4.67477 -13.94796,7.05996 -3.44623,1.77451 -7.20782,2.53865 -10.78171,3.88621 -3.99347,1.50576 -8.0121,2.99092 -12.0731,4.27081 -4.4467,1.40144 -9.10405,2.22692 -13.7925,1.00365 -2.11209,-0.55106 -3.65204,-1.82447 -4.17454,-4.12038 -0.9253,-4.06587 0.26752,-7.67028 2.26789,-11.12731 1.18376,-2.04577 2.3501,-4.10161 3.52416,-6.15299 0.6376,-1.11408 1.80719,-1.68286 3.45258,-1.62897 0.39606,1.34191 -0.52715,2.36117 -1.06996,3.34287 -1.97256,3.56745 -3.16725,7.39882 -4.19278,11.30094 -0.48377,1.84073 1.00792,3.62609 3.18155,3.72671 3.1188,0.14437 6.17062,-0.46761 9.22636,-0.9876 1.73881,-0.2959 3.50169,-0.4852 5.21519,-0.88691 2.60437,-0.61053 5.28085,-0.68958 7.83698,-1.80016 3.4565,-1.50176 7.22986,-2.33469 10.52916,-4.17998 7.16439,-4.00705 14.89677,-6.98729 21.50495,-12.01376 2.18289,-1.66039 4.64909,-2.94829 7.07278,-4.4663 z"
   id="path2"
   style="fill:#d97757;fill-opacity:1;stroke-width:0.296268;stroke:none;stroke-opacity:0" />
<path
   fill="#d97757"
   opacity="1"
   stroke="none"
   d="m 356.57768,282.93324 c -6.82778,4.42469 -14.22067,7.65737 -20.9092,12.10464 -5.00023,3.32472 -9.96905,6.69495 -14.33095,10.8635 -0.10695,0.1022 -0.20192,0.21714 -0.31067,0.31724 -0.83334,0.76707 -1.85732,1.28761 -2.72044,0.33215 -0.84696,-0.93756 -0.13931,-1.80521 0.67728,-2.50128 4.64878,-3.96265 9.25575,-7.97518 13.94489,-11.88937 3.66312,-3.05773 8.01611,-4.96281 12.24186,-7.08129 5.71856,-2.86686 11.38681,-5.79692 16.6764,-9.46716 3.84288,-2.6664 8.32383,-4.23587 12.66327,-5.97337 5.42322,-2.17144 10.88653,-4.24302 16.3387,-6.34173 1.50055,-0.5776 3.1135,-0.45668 4.67039,-0.5562 2.21116,-0.14133 4.43862,-0.0275 6.65911,-0.0232 0.65411,10e-4 1.2828,0.0474 1.65269,1.08455 -16.71887,3.98418 -31.92293,11.5724 -47.25333,19.13152 z"
   id="path3"
   style="fill:#d97757;fill-opacity:1;stroke-width:0.296268;stroke:none;stroke-opacity:0" />
<path
   fill="#d97757"
   opacity="1"
   stroke="none"
   d="m 445.57294,267.27301 c -3.78975,7.41056 -9.36205,13.23838 -15.22809,18.82899 -0.35094,0.33446 -0.70928,0.57795 -1.16909,0.26365 -0.50943,-0.34819 -0.24735,-0.83538 -0.0718,-1.20033 1.04218,-2.16641 2.15077,-4.30092 3.19002,-6.46869 1.74373,-3.63718 4.27747,-6.87258 5.63604,-10.68788 1.08506,-3.04718 -0.14938,-5.81348 -1.76838,-8.33967 -0.58402,-0.91127 -1.76923,-1.23518 -2.88483,-1.26185 -4.43371,-0.10602 -8.904,-0.39148 -13.24782,0.67741 -2.62547,0.64605 -5.38865,0.39869 -7.94478,1.53318 -1.12783,0.50058 -2.5253,0.36324 -3.78377,-0.0377 -0.3898,-0.12418 -0.74022,-0.32714 -0.75679,-0.80069 -0.0143,-0.4092 0.30635,-0.57075 0.60363,-0.76185 1.55674,-1.00072 3.31263,-1.50234 5.0721,-1.94615 3.41722,-0.86196 6.85059,-1.66182 10.28656,-2.44671 2.28785,-0.52261 4.59167,-0.97536 6.88857,-1.45825 1.92464,-0.4046 3.85023,-0.78448 5.80615,-1.03489 2.27687,-0.2915 4.42854,-0.0157 6.40061,1.15575 3.51429,2.08754 5.34667,7.08082 4.06955,10.97352 -0.3212,0.97904 -0.70801,1.93656 -1.09787,3.01212 z"
   id="path4"
   style="fill:#d97757;fill-opacity:1;stroke-width:0.296268;stroke:none;stroke-opacity:0" />
<path
   fill="#d97757"
   opacity="1"
   stroke="none"
   d="m 382.79884,288.40834 c 1.12233,-0.40587 2.09997,-0.0496 3.02091,0.1967 1.34908,0.36074 1.66878,2.13004 0.80375,3.62178 -1.32636,2.2873 -3.3722,3.85203 -5.46835,5.31432 -5.09594,3.55502 -10.5537,6.44832 -16.41535,8.54232 -1.98739,0.70997 -4.03411,1.24032 -6.13257,1.46622 -1.25884,0.1355 -2.49225,-0.0999 -3.17532,-1.36788 -0.73067,-1.35632 0.0157,-2.48517 0.73325,-3.53501 1.09998,-1.6094 2.66402,-2.76934 4.21849,-3.88734 6.07004,-4.36561 12.63614,-7.76748 19.81515,-9.92251 0.7938,-0.23829 1.64814,-0.27492 2.60004,-0.4286 z"
   id="path5"
   style="fill:#d97757;fill-opacity:1;stroke-width:0.296268;stroke:none;stroke-opacity:0" />
<path
   fill="#d97757"
   opacity="1"
   stroke="none"
   d="m 408.69055,291.37525 c 0.27254,-3.44576 1.39491,-6.47439 3.15109,-9.29391 0.5718,-0.91803 1.01707,-1.91409 1.57143,-2.8439 1.10194,-1.84824 0.39285,-3.55093 -0.49209,-5.15786 -0.50541,-0.91778 -1.5877,-1.06628 -2.58601,-1.15817 -2.9364,-0.27028 -5.79786,0.309 -8.64013,0.87864 -2.01802,0.40445 -4.02525,0.26596 -6.04107,0.27784 -0.3949,0.002 -0.78809,-0.10065 -1.00093,-0.62825 0.67064,-1.22067 2.04006,-1.50498 3.17545,-1.78161 4.1909,-1.02113 8.35937,-2.14123 12.62322,-2.88252 2.11599,-0.36787 4.09611,-0.78433 6.19649,0.0534 1.8033,0.71923 3.20274,2.47243 3.40323,4.40117 0.2846,2.73784 -0.57364,5.11291 -1.95703,7.4046 -1.21076,2.00577 -2.92398,3.58616 -4.3453,5.41021 -0.35876,0.46042 -0.68143,0.94895 -1.09796,1.53289 1.94715,0.91522 2.4126,2.46919 1.96579,4.32573 -0.26656,1.10761 -1.86701,2.04295 -3.16757,2.00651 -1.58595,-0.0445 -2.38602,-0.98361 -2.75861,-2.54476 z"
   id="path6"
   style="fill:#d97757;fill-opacity:1;stroke-width:0.296268;stroke:none;stroke-opacity:0" />
<path
   fill="#d97757"
   opacity="1"
   stroke="none"
   d="m 383.72224,282.58313 c -6.11791,1.70188 -12.01825,3.6272 -17.71843,6.20704 -4.69541,2.12509 -9.52611,3.94687 -13.86753,6.78622 -0.98759,0.64589 -1.95232,1.32802 -2.95555,1.94821 -0.73739,0.45585 -1.45324,0.33225 -1.94403,-0.39212 -0.50482,-0.74506 -0.1023,-1.33447 0.52625,-1.74674 4.1447,-2.71852 7.92583,-6.04795 12.65172,-7.79785 3.21804,-1.19156 6.58082,-2.08725 9.59866,-3.6965 4.72407,-2.51909 9.69611,-3.98593 14.98641,-4.44968 1.66484,-0.14593 3.38866,-0.41903 5.35942,0.57052 -2.26324,1.29169 -4.556,1.52314 -6.63692,2.5709 z"
   id="path7"
   style="fill:#d97757;fill-opacity:1;stroke-width:0.296268;stroke:none;stroke-opacity:0" />
<path
   fill="#d97757"
   opacity="1"
   stroke="none"
   d="m 340.94471,271.14249 c -0.8509,2.29216 -0.66367,4.64988 -1.16411,6.90229 -0.20816,0.9369 -0.12332,1.93916 -0.64216,2.87972 -0.88219,-0.1355 -1.20766,-0.72446 -1.27782,-1.43585 -0.24737,-2.50799 -1.09999,-4.88676 -1.52312,-7.35694 -0.19406,-1.13289 -1.15489,-1.26078 -2.0531,-1.26109 -1.79149,-6.1e-4 -3.45998,-0.76395 -5.24784,-0.77728 -0.36155,-0.003 -0.80168,-0.0751 -1.08523,-0.66875 1.01162,-1.4922 2.83766,-1.3577 4.30444,-1.92696 0.39818,-0.15454 0.89248,-0.0443 1.31239,-0.16278 2.35447,-0.66461 2.70742,-1.04234 2.72696,-3.7175 0.0149,-2.04241 0.30708,-4.02461 0.75374,-5.99773 0.10352,-0.45725 0.0686,-1.0104 0.69154,-1.30806 0.80432,0.57205 1.00967,1.46198 1.18689,2.36683 0.41553,2.12151 0.8436,4.23942 1.31078,6.351 0.3073,1.38889 1.01872,1.78073 2.22714,1.81131 2.06764,0.0523 3.99993,0.74326 6.0445,1.24596 -2.16382,1.96759 -5.0637,1.87344 -7.565,3.05583 z"
   id="path8"
   style="fill:#d97757;fill-opacity:1;stroke-width:0.296268;stroke:none;stroke-opacity:0" />
<path
   fill="#d97757"
   opacity="1"
   stroke="none"
   d="m 359.14769,353.8426 c -1.16276,-0.18089 -2.05884,-0.6185 -2.86549,-1.38602 0.62342,-0.94649 1.62436,-0.72162 2.41181,-0.9836 0.69502,-0.23124 1.42536,-0.38221 2.15184,-0.48845 3.09035,-0.452 3.03111,-0.44749 3.35062,-3.49753 0.17876,-1.70639 0.55406,-3.38914 0.67332,-5.11277 0.0481,-0.69516 0.34596,-1.43575 1.17824,-1.99662 0.95456,1.22299 0.96092,2.76074 1.18139,4.09617 0.23757,1.43904 0.77464,2.81401 0.81465,4.31555 0.0307,1.15155 1.08825,1.53772 2.16614,1.57113 1.42849,0.0443 2.85831,0.0512 4.28607,0.11015 0.53756,0.0222 1.19387,0.0716 1.30318,0.72931 0.11536,0.69399 -0.41834,0.94475 -1.01772,1.21811 -1.6161,0.73699 -3.27543,1.33616 -4.98969,1.76772 -0.91599,0.23059 -1.31245,0.67696 -1.26896,1.64519 0.13282,2.95718 -0.9281,5.83448 -0.62462,8.81213 0.0431,0.4229 -0.0327,0.8947 -0.64565,1.11889 -0.64877,-0.60485 -0.98745,-1.4087 -1.16482,-2.26304 -0.48777,-2.34934 -0.94839,-4.70487 -1.3782,-7.06552 -0.23766,-1.30529 -0.91732,-2.02067 -2.28681,-2.02002 -1.08111,5e-4 -2.17741,0.0544 -3.2753,-0.57078 z"
   id="path9"
   style="fill:#d97757;fill-opacity:1;stroke-width:0.296268;stroke:none;stroke-opacity:0" />
<path
   fill="#d97757"
   opacity="1"
   stroke="none"
   d="m 434.53643,322.88216 c -5.14945,1.08534 -5.24686,1.08566 -5.32063,5.07399 -0.0373,2.01666 -0.1496,4.03198 -0.23305,6.0477 -0.0142,0.34291 -0.0398,0.69205 -0.51155,0.91137 -0.62514,-0.40258 -1.0888,-1.0063 -1.13619,-1.73951 -0.16021,-2.47866 -1.35501,-4.71677 -1.58383,-7.17916 -0.0766,-0.82385 -0.55869,-1.34449 -1.50581,-1.55841 -1.52034,-0.34338 -3.04238,-0.16815 -4.55645,-0.29812 -1.09209,-0.0937 -2.28759,-0.0985 -2.88177,-1.62651 2.13964,-0.57337 4.18141,-1.21606 6.26639,-1.6523 2.07684,-0.43455 2.17689,-0.37716 2.12205,-2.56351 -0.051,-2.03172 0.10887,-4.02362 0.64098,-5.98552 0.10312,-0.38026 0.15768,-0.77894 0.78191,-0.98483 0.77282,0.80167 0.84738,1.94622 1.13379,2.97078 0.40688,1.45543 0.73045,2.93508 1.05862,4.41128 0.24135,1.08577 0.83533,1.50931 1.98432,1.46244 2.41599,-0.0986 4.82732,0.0571 7.20697,0.54488 0.52044,0.10668 1.10045,0.0878 1.40263,1.00749 -1.99986,0.51742 -3.2293,0.79891 -4.86838,1.15794 z"
   id="path10"
   style="fill:#d97757;fill-opacity:1;stroke:none;stroke-width:0.296268;stroke-opacity:0"
   sodipodi:nodetypes="csscsssscssscsssscc" />
<path
   fill="#d97757"
   opacity="1"
   stroke="none"
   d="m 290.45786,301.42801 c -0.71123,-0.34309 -1.51948,-0.18973 -2.03992,-1.05183 1.08854,-0.80196 2.35874,-1.13204 3.63262,-1.22983 1.19524,-0.0918 2.24259,-0.69973 3.45449,-0.73092 0.70172,-0.0181 0.83907,-0.78484 0.79405,-1.39229 -0.16619,-2.24231 0.82857,-4.34631 0.738,-6.58669 -0.0293,-0.72598 0.29657,-1.44559 1.01253,-1.81629 0.61507,0.11723 0.72731,0.59706 0.76764,1.01332 0.23185,2.39324 1.01501,4.68022 1.32917,7.05347 0.14494,1.09494 0.70245,1.60396 1.78672,1.79522 1.73574,0.30616 3.48486,0.59066 5.15051,1.21158 0.37017,0.13799 0.75858,0.24249 0.90926,0.83296 -0.76671,0.89508 -1.99138,0.84899 -3.00706,1.0478 -1.06127,0.20774 -2.1019,0.50601 -3.16387,0.68861 -0.872,0.14993 -1.27856,0.64351 -1.44113,1.44725 -0.30205,1.49334 -0.61387,2.98473 -0.91743,4.47777 -0.15123,0.74378 -0.43158,1.40169 -1.1152,1.81495 -0.81238,-0.2027 -0.67223,-0.88513 -0.78782,-1.43276 -0.3641,-1.72498 -0.74104,-3.4473 -1.09546,-5.17425 -0.14667,-0.71468 -0.65334,-0.89301 -1.27837,-1.00836 -1.54155,-0.2845 -3.07578,-0.60866 -4.72873,-0.95971 z"
   id="path11"
   style="fill:#d97757;fill-opacity:1;stroke-width:0.296268;stroke:none;stroke-opacity:0" />
<path
   fill="#d97757"
   opacity="1"
   stroke="none"
   d="m 292.20319,366.86832 c -0.77587,1.58336 -0.10145,3.37232 -1.04083,4.8719 -0.93775,-0.2112 -1.2263,-0.76415 -1.39421,-1.56233 -0.34317,-1.63142 -0.84265,-3.22988 -1.18774,-4.86098 -0.28078,-1.32713 -1.11991,-1.78914 -2.3445,-1.72215 -1.50882,0.0826 -2.86418,-0.71314 -4.35976,-0.70636 -0.34077,0.002 -0.65349,-0.22251 -0.71616,-0.72301 0.40951,-0.67942 1.12505,-0.95357 1.89664,-1.13782 1.24501,-0.29731 2.49862,-0.56226 3.73399,-0.89513 0.99204,-0.26728 1.51228,-0.84647 1.58162,-1.99774 0.13578,-2.25458 0.45837,-4.49871 0.73538,-6.74324 0.0507,-0.41102 0.0352,-0.91778 0.63746,-1.13618 0.79748,0.49142 1.02312,1.2697 1.17984,2.1853 0.33911,1.98115 0.8235,3.93698 1.21199,5.91035 0.1864,0.94683 0.71834,1.25485 1.6548,1.25115 1.5742,-0.006 3.15328,0.0595 4.68241,0.52286 0.46499,0.14092 0.9542,0.22616 1.27606,0.78642 -0.7209,0.86542 -1.78331,0.96623 -2.70516,1.31139 -1.01132,0.37866 -2.03601,0.74082 -3.08165,1.00367 -1.26763,0.31869 -1.79255,1.0452 -1.62828,2.33882 0.0484,0.38129 -0.0642,0.78302 -0.1319,1.30308 z"
   id="path12"
   style="fill:#d97757;fill-opacity:1;stroke-width:0.296268;stroke:none;stroke-opacity:0" />
<path
   fill="#d97757"
   opacity="1"
   stroke="none"
   d="m 445.19564,297.33329 c 0.56682,1.26919 1.68233,1.21183 2.60254,1.13393 2.15668,-0.18256 4.14979,0.79838 6.27604,0.72575 0.20189,-0.007 0.41127,0.20527 0.55892,0.28448 0.1048,0.55962 -0.21242,0.75924 -0.54628,0.82592 -1.39465,0.27853 -2.79429,0.68593 -4.19896,0.71511 -1.26974,0.0264 -2.40135,0.46389 -3.59955,0.68592 -0.80557,0.14927 -0.7487,0.80992 -0.73966,1.39948 0.0319,2.07863 -0.78982,4.06444 -0.6542,6.15787 0.0247,0.38029 -0.15791,0.7687 -0.66664,1.17854 -0.78045,-1.2259 -1.1942,-2.57657 -1.19857,-3.92914 -0.004,-1.37703 -0.62802,-2.56536 -0.78138,-3.88093 -0.0919,-0.78835 -0.79043,-0.87299 -1.48595,-0.86858 -1.47974,0.009 -2.9487,-0.1238 -4.36875,-0.57344 -0.44288,-0.14025 -1.00972,-0.13878 -1.17419,-0.96145 1.11862,-0.61416 2.36926,-0.97687 3.65832,-1.09798 2.88176,-0.27077 3.45603,-0.80052 3.48064,-3.7253 0.0119,-1.40705 0.17951,-2.71482 1.3255,-4.01958 0.93362,1.96025 1.132,3.91989 1.51217,5.9494 z"
   id="path13"
   style="fill:#d97757;fill-opacity:1;stroke-width:0.296268;stroke:none;stroke-opacity:0" />
<path
   fill="#d97757"
   opacity="1"
   stroke="none"
   d="m 398.20944,319.26899 c 0.0569,-0.56222 0.10054,-1.0056 0.73222,-1.3731 0.86668,1.10374 1.06778,2.46157 1.2271,3.74541 0.33976,2.73776 0.68507,3.08197 3.43253,3.25905 1.66407,0.10726 3.31523,0.42079 4.97034,0.6547 0.2537,0.0359 0.44322,0.20204 0.57034,0.66811 -1.05041,0.74029 -2.39621,0.85159 -3.62127,1.09496 -1.14866,0.22819 -2.30889,0.44794 -3.46456,0.6352 -1.07074,0.17351 -1.29574,0.67409 -1.23338,1.5832 0.12926,1.88453 -0.27842,3.7284 -0.46551,5.58785 -0.061,0.60611 -0.0561,1.29941 -0.63982,1.6877 -0.58858,-0.0257 -0.73949,-0.4309 -0.7659,-0.81276 -0.15934,-2.30372 -0.8377,-4.50515 -1.25431,-6.75683 -0.17791,-0.96152 -0.58924,-1.19005 -1.46338,-1.20737 -1.81104,-0.0359 -3.65738,0.21723 -5.40247,-0.54165 -0.36054,-0.1568 -0.76367,-0.21881 -0.95945,-0.66882 0.16469,-0.76869 0.84666,-0.61239 1.3855,-0.75243 1.70251,-0.44244 3.48259,-0.4751 5.16689,-1.0287 0.9072,-0.29817 1.18681,-0.8036 1.12191,-1.76216 -0.0897,-1.32524 0.062,-2.65868 0.66322,-4.01236 z"
   id="path14"
   style="fill:#d97757;fill-opacity:1;stroke-width:0.296268;stroke:none;stroke-opacity:0" />
<path
   fill="#d97757"
   opacity="1"
   stroke="none"
   d="m 429.2141,238.55228 c 1.54811,0 3.29589,-0.86187 3.26469,-3.87654 -0.0135,-1.30294 0.23095,-2.71615 1.31568,-4.10158 0.81147,1.51089 1.05021,2.99896 1.28983,4.42632 0.44292,2.6386 0.53284,2.78782 3.10551,2.85044 1.23154,0.03 2.46122,0.15454 3.69051,0.25195 0.5181,0.0411 1.03084,0.19242 1.05263,0.81482 0.0211,0.60351 -0.44985,0.8323 -0.96929,0.93226 -1.3498,0.25976 -2.69297,0.58023 -4.05469,0.74545 -1.82989,0.22203 -2.12086,0.44129 -2.1567,2.24951 -0.0295,1.49086 -0.31219,2.93808 -0.64591,4.38041 -0.0879,0.37978 -0.1394,0.7923 -0.81456,0.97646 -0.69452,-0.94731 -0.67014,-2.214 -1.11869,-3.28621 -0.073,-0.17448 -0.041,-0.39071 -0.0713,-0.58549 -0.46457,-2.98265 -0.63194,-3.09632 -3.59928,-3.15687 -1.17681,-0.024 -2.3547,-0.18854 -3.52288,-0.35409 -0.52028,-0.0737 -1.07468,-0.23275 -1.26943,-1.09454 1.40277,-0.57483 4.09759,-1.1723 4.50389,-1.1723 z"
   id="path15"
   style="fill:#d97757;fill-opacity:1;stroke:none;stroke-width:0.296268;stroke-opacity:0"
   sodipodi:nodetypes="sscsssssssscscsscss" />
<path
   fill="#d97757"
   opacity="1"
   stroke="none"
   d="m 295.32159,352.43502 c -0.59991,-1.67421 0.1109,-2.89404 1.15887,-3.93235 0.78888,-0.7816 1.80881,-0.95904 2.88564,-0.57907 1.63888,0.57827 2.26917,1.55092 2.1956,3.38503 -0.056,1.39663 -1.11886,2.74498 -2.38301,3.02319 -1.649,0.36291 -2.8738,-0.21681 -3.8571,-1.8968 z"
   id="path16"
   style="fill:#d97757;fill-opacity:1;stroke-width:0.296268;stroke:none;stroke-opacity:0" />
<path
   fill="#d97757"
   opacity="1"
   stroke="none"
   d="m 380.97422,331.98833 c -1.27508,-1.17713 -1.53854,-3.50466 -0.60174,-4.56233 1.29873,-1.46633 3.35649,-1.72866 4.75629,-0.60637 1.2882,1.03286 1.51763,3.08846 0.50459,4.52123 -0.98273,1.38992 -3.0325,1.71199 -4.65914,0.64747 z"
   id="path17"
   style="fill:#d97757;fill-opacity:1;stroke-width:0.296268;stroke:none;stroke-opacity:0" />
<path
   fill="#d97757"
   opacity="1"
   stroke="none"
   d="m 322.32653,279.25076 c 1.88822,0.55534 3.07674,2.34038 2.60911,3.75984 -0.67835,2.05908 -2.79242,3.09084 -4.70964,2.29851 -1.53649,-0.63497 -2.33379,-2.76327 -1.512,-4.39389 0.70105,-1.39104 2.00841,-1.7924 3.61253,-1.66446 z"
   id="path18"
   style="fill:#d97757;fill-opacity:1;stroke-width:0.296268;stroke:none;stroke-opacity:0" />
<path
   fill="#d97757"
   opacity="1"
   stroke="none"
   d="m 388.88942,255.9285 c -1.26358,-1.78931 -1.22712,-3.24595 0.0308,-4.44919 1.14472,-1.0949 3.05546,-1.3047 4.19615,-0.46071 1.39467,1.0319 1.81505,3.50764 0.80321,4.73027 -1.23453,1.49171 -3.4873,1.61194 -5.03021,0.17963 z"
   id="path19"
   style="fill:#d97757;fill-opacity:1;stroke-width:0.296268;stroke:none;stroke-opacity:0" />
<path
   fill="#d97757"
   opacity="1"
   stroke="none"
   d="m 445.02019,274.23635 c 0.0484,-1.88999 0.73745,-2.98199 2.09331,-3.43601 1.35243,-0.45286 3.09591,-0.0459 3.76416,0.90716 0.80311,1.1454 0.91041,2.4194 0.24665,3.60426 -0.73192,1.30652 -2.01426,1.87443 -3.48328,1.63319 -1.41608,-0.23255 -2.39385,-1.07562 -2.62084,-2.7086 z"
   id="path20"
   style="fill:#d97757;fill-opacity:1;stroke-width:0.296268;stroke:none;stroke-opacity:0" />
<path
   fill="#d97757"
   opacity="1"
   stroke="none"
   d="m 443.50684,289.24118 c -2.12857,1.5044 -3.28446,1.53475 -4.53132,0.20282 -1.44944,-1.54834 -1.55155,-2.98537 -0.30686,-4.31864 1.16594,-1.24891 3.15804,-1.4398 4.44441,-0.42591 1.41279,1.11356 1.59325,2.81916 0.39377,4.54173 z"
   id="path21"
   style="fill:#d97757;fill-opacity:1;stroke-width:0.296268;stroke:none;stroke-opacity:0" />
<path
   fill="#d97757"
   opacity="1"
   stroke="none"
   d="m 415.32561,340.14707 c -0.0209,2.0992 -0.61176,2.90149 -2.43774,3.44262 -1.22053,0.3617 -2.62584,-0.18293 -3.28998,-1.35125 -0.6411,-1.12776 -0.92466,-2.3038 -0.0213,-3.45135 0.85406,-1.08496 1.96433,-1.67114 3.35309,-1.3793 1.37683,0.28931 2.27714,1.1156 2.39596,2.73928 z"
   id="path22"
   style="fill:#d97757;fill-opacity:1;stroke-width:0.296268;stroke:none;stroke-opacity:0" />
<path
   fill="#d97757"
   opacity="1"
   stroke="none"
   d="m 327.43769,263.35981 c -2.41154,-1.30307 -2.9096,-3.20517 -1.29792,-4.92955 0.88335,-0.94513 1.94354,-1.72285 3.38334,-1.04554 1.64815,0.77534 2.43521,1.99371 2.23054,3.43776 -0.17876,1.26121 -1.55564,2.47407 -3.02453,2.62389 -0.38646,0.0394 -0.78381,-0.028 -1.29143,-0.0866 z"
   id="path23"
   style="fill:#d97757;fill-opacity:1;stroke-width:0.296268;stroke:none;stroke-opacity:0" />
<path
   fill="#d97757"
   opacity="1"
   stroke="none"
   d="m 334.86061,361.98782 c 1.02373,-1.03364 2.15487,-1.61942 3.50816,-1.35573 1.53612,0.29928 2.78373,2.09407 2.52269,3.43908 -0.30747,1.58418 -2.24323,2.94664 -3.87221,2.7254 -1.47689,-0.20058 -2.78987,-2.00685 -2.58342,-3.60505 0.049,-0.37952 0.23522,-0.74134 0.42478,-1.2037 z"
   id="path24"
   style="fill:#d97757;fill-opacity:1;stroke-width:0.296268;stroke:none;stroke-opacity:0" />
<path
   fill="#d97757"
   opacity="1"
   stroke="none"
   d="m 389.0836,276.25753 c -2.0516,0.58487 -3.40012,0.085 -3.89474,-1.37051 -0.72699,-2.13935 0.0722,-3.72235 2.27955,-4.51505 1.2898,-0.46318 3.01204,0.33728 3.47443,1.69607 0.57819,1.6991 0.36157,3.39332 -1.85924,4.18949 z"
   id="path25"
   style="fill:#d97757;fill-opacity:1;stroke-width:0.296268;stroke:none;stroke-opacity:0" />
<path
   fill="#d97757"
   opacity="1"
   stroke="none"
   d="m 396.0911,243.92882 c -0.5477,-1.7415 0.19975,-3.39947 1.67241,-3.91541 1.8125,-0.635 3.77808,0.22257 4.36934,1.9063 0.50202,1.42967 -0.39442,3.2421 -1.89484,3.83096 -1.71688,0.67381 -3.28395,0.0173 -4.14691,-1.82185 z"
   id="path26"
   style="fill:#d97757;fill-opacity:1;stroke-width:0.296268;stroke:none;stroke-opacity:0" />
<path
   fill="#d97757"
   opacity="1"
   stroke="none"
   d="m 426.89441,245.76139 c 2.36278,0.0624 3.46418,0.94703 3.53199,2.73551 0.0651,1.71794 -1.29646,3.20377 -3.03971,3.31707 -1.83468,0.11924 -3.20079,-1.05839 -3.36292,-2.89894 -0.14365,-1.63065 0.95298,-2.88239 2.87064,-3.15364 z"
   id="path27"
   style="fill:#d97757;fill-opacity:1;stroke-width:0.296268;stroke:none;stroke-opacity:0" />
<path
   fill="#d97757"
   opacity="1"
   stroke="none"
   d="m 381.1168,338.07701 c 1.39641,2.50841 0.23953,4.92736 -2.30827,5.07103 -2.04241,0.11518 -3.50441,-1.12009 -3.49115,-2.94975 0.0127,-1.75389 1.76295,-3.30325 3.6205,-3.11171 0.7614,0.0785 1.59279,0.1607 2.17892,0.99043 z"
   id="path28"
   style="fill:#d97757;fill-opacity:1;stroke-width:0.296268;stroke:none;stroke-opacity:0" />
<path
   fill="#d97757"
   opacity="1"
   stroke="none"
   d="m 359.57882,265.97405 c 1.62207,-0.51509 3.3533,0.25839 3.82838,1.61034 0.66338,1.88771 -0.0993,3.46642 -2.02947,4.20076 -1.37204,0.52201 -3.21172,-0.25955 -3.8098,-1.61852 -0.74093,-1.68358 0.0118,-3.31959 2.01089,-4.19258 z"
   id="path29"
   style="fill:#d97757;fill-opacity:1;stroke-width:0.296268;stroke:none;stroke-opacity:0" />
<path
   fill="#d97757"
   opacity="1"
   stroke="none"
   d="m 282.81063,334.47728 c -1.22544,-1.36551 -1.37593,-3.3803 -0.4344,-4.5121 0.9832,-1.18188 2.62502,-1.55464 3.86279,-0.87703 1.46068,0.79964 2.00808,2.76698 1.21884,4.38046 -0.83895,1.71514 -2.47558,2.10099 -4.64723,1.00867 z"
   id="path30"
   style="fill:#d97757;fill-opacity:1;stroke-width:0.296268;stroke:none;stroke-opacity:0" />
<path
   fill="#d97757"
   opacity="1"
   stroke="none"
   d="m 347.45676,346.30153 c -1.62297,-1.44855 -1.75355,-3.58978 -0.39723,-4.83439 1.42447,-1.30716 3.42658,-1.22237 4.56036,0.19312 0.69115,0.86287 0.85715,2.95933 0.29992,3.7879 -0.6624,0.98494 -2.58859,1.52001 -3.78952,1.05906 -0.18286,-0.0702 -0.37852,-0.10699 -0.67353,-0.20569 z"
   id="path31"
   style="fill:#d97757;fill-opacity:1;stroke-width:0.296268;stroke:none;stroke-opacity:0" />
<path
   fill="#d97757"
   opacity="1"
   stroke="none"
   d="m 379.16473,259.40869 c -1.87475,0.25791 -3.50177,-1.03126 -3.70493,-2.80132 -0.16545,-1.44152 1.32202,-3.11918 2.96465,-3.34372 1.45909,-0.19945 3.20598,1.29511 3.37166,2.88463 0.13652,1.30985 -0.79106,2.48999 -2.63138,3.26041 z"
   id="path32"
   style="fill:#d97757;fill-opacity:1;stroke-width:0.296268;stroke:none;stroke-opacity:0" />
<path
   fill="#d97757"
   opacity="1"
   stroke="none"
   d="m 449.95978,255.10707 c -1.89587,-0.388 -2.78422,-1.79462 -2.4951,-3.75947 0.21656,-1.4719 1.60908,-2.39774 3.42697,-2.27847 1.43973,0.0944 2.62504,1.4817 2.60942,3.05395 -0.0166,1.66944 -1.23446,2.89774 -2.97198,2.99441 -0.14704,0.008 -0.29503,-3.2e-4 -0.56931,-0.0104 z"
   id="path33"
   style="fill:#d97757;fill-opacity:1;stroke-width:0.296268;stroke:none;stroke-opacity:0" />
<path
   fill="#d97757"
   opacity="1"
   stroke="none"
   d="m 333.71552,345.28957 c 1.55178,-0.40024 2.60803,0.15854 3.34604,1.36148 0.73179,1.19278 0.87867,2.37262 -0.23486,3.4751 -0.95916,0.94965 -2.83968,1.42175 -3.92863,0.80815 -1.21671,-0.68558 -1.81956,-1.79443 -1.57981,-3.21053 0.21652,-1.27891 1.03699,-2.0677 2.39726,-2.4342 z"
   id="path34"
   style="fill:#d97757;fill-opacity:1;stroke-width:0.296268;stroke:none;stroke-opacity:0" />
<path
   fill="#d97757"
   opacity="1"
   stroke="none"
   d="m 316.69679,359.56224 c 0.17161,-2.25219 0.81621,-3.04676 2.55635,-3.26902 1.96224,-0.25064 3.02164,0.25224 3.32885,1.58011 0.49738,2.14986 -0.13211,3.57599 -1.87332,4.24402 -1.45194,0.55706 -2.83037,-0.10004 -3.70812,-1.77394 -0.11327,-0.21603 -0.19961,-0.44621 -0.30376,-0.78117 z"
   id="path35"
   style="fill:#d97757;fill-opacity:1;stroke-width:0.296268;stroke:none;stroke-opacity:0" />
<path
   fill="#d97757"
   opacity="1"
   stroke="none"
   d="m 362.48043,253.16838 c 1.51442,-0.27962 2.76882,-0.14449 3.57951,1.22848 0.58209,0.98578 0.85145,1.95775 0.15135,3.03532 -0.82112,1.26382 -1.97282,1.66159 -3.41047,1.56608 -1.54202,-0.10245 -2.05302,-1.19007 -2.37045,-2.42743 -0.34217,-1.3338 0.38342,-2.54073 2.05006,-3.40245 z"
   id="path36"
   style="fill:#d97757;fill-opacity:1;stroke-width:0.296268;stroke:none;stroke-opacity:0" />
<path
   fill="#d97757"
   opacity="1"
   stroke="none"
   d="m 321.64101,297.92959 c -1.21833,1.44876 -3.39348,1.69128 -4.62994,0.61191 -1.36001,-1.18724 -1.37198,-3.01073 -0.0301,-4.59102 0.91758,-1.08065 3.04906,-1.08563 4.26829,0.0545 1.19832,1.12055 0.82388,2.48421 0.3918,3.92464 z"
   id="path37"
   style="fill:#d97757;fill-opacity:1;stroke-width:0.296268;stroke:none;stroke-opacity:0" />
<path
   fill="#d97757"
   opacity="1"
   stroke="none"
   d="m 316.95815,329.73563 c -0.78167,1.64603 -1.66556,2.07135 -3.20401,1.61126 -1.27856,-0.38237 -1.79675,-1.2832 -1.67365,-2.56686 0.15717,-1.63872 1.44504,-2.42396 3.36465,-2.08381 1.28455,0.22762 1.88726,1.35808 1.51301,3.03941 z"
   id="path38"
   style="fill:#d97757;fill-opacity:1;stroke-width:0.296268;stroke:none;stroke-opacity:0" />
<path
   fill="#d97757"
   opacity="1"
   stroke="none"
   d="m 310.3121,372.33849 c -0.4938,-1.3591 -0.005,-2.28231 1.00807,-3.00964 0.84977,-0.60987 1.71705,-0.64041 2.58723,-0.044 1.00448,0.68848 1.01354,1.70999 0.89003,2.75912 -0.1185,1.00639 -0.87017,1.29601 -1.71631,1.54152 -1.24699,0.3618 -2.07864,-0.13253 -2.76902,-1.24701 z"
   id="path39"
   style="fill:#d97757;fill-opacity:1;stroke-width:0.296268;stroke:none;stroke-opacity:0" />
<path
   fill="#d97757"
   opacity="1"
   stroke="none"
   d="m 339.68515,294.68976 c 1.50614,0.22356 2.18265,1.14986 2.25782,2.44573 0.0584,1.00606 -0.44457,1.78214 -1.49078,2.12659 -1.31527,0.433 -2.50309,-0.005 -3.12708,-1.20317 -0.56404,-1.08323 -0.14133,-2.19553 1.15718,-2.94565 0.33245,-0.19206 0.72226,-0.28484 1.20286,-0.4235 z"
   id="path40"
   style="fill:#d97757;fill-opacity:1;stroke-width:0.296268;stroke:none;stroke-opacity:0" />
<path
   fill="#d97757"
   opacity="1"
   stroke="none"
   d="m 397.28352,281.1893 c -0.24713,-1.59988 0.43534,-2.75758 1.67661,-3.04362 1.35653,-0.3126 2.45368,0.35025 2.91945,1.82162 0.38074,1.20275 -0.29186,2.01407 -1.22406,2.53708 -1.1835,0.66399 -2.44503,0.14233 -3.372,-1.31508 z"
   id="path41"
   style="fill:#d97757;fill-opacity:1;stroke-width:0.296268;stroke:none;stroke-opacity:0" />
<path
   fill="#d97757"
   opacity="1"
   stroke="none"
   d="m 343.68314,321.73218 c -1.93947,0.0709 -2.62957,-0.41324 -2.85424,-1.89017 -0.19543,-1.28469 0.49124,-2.29044 1.78975,-2.62145 1.09833,-0.27999 2.25845,0.34835 2.71816,1.47221 0.49364,1.20684 -0.0606,2.29305 -1.65367,3.03941 z"
   id="path42"
   style="fill:#d97757;fill-opacity:1;stroke-width:0.296268;stroke:none;stroke-opacity:0" />
<path
   fill="#d97757"
   opacity="1"
   stroke="none"
   d="m 455.04721,283.11252 c 0.14904,1.55721 -0.67515,2.65498 -1.99809,2.82374 -1.28403,0.1638 -2.32446,-0.62159 -2.61118,-2.06197 -0.2428,-1.21975 0.40746,-2.00591 1.47718,-2.41308 1.47257,-0.56048 2.43587,-0.0447 3.13209,1.65131 z"
   id="path43"
   style="fill:#d97757;fill-opacity:1;stroke-width:0.296268;stroke:none;stroke-opacity:0" />
<path
   fill="#d97757"
   opacity="1"
   stroke="none"
   d="m 285.19592,345.09858 c -1.1482,-1.10023 -0.9891,-2.28932 -0.34038,-3.40228 0.60003,-1.02943 1.61953,-0.9851 2.61765,-0.61762 1.36896,0.50404 1.8694,1.65697 1.30871,2.94123 -0.62119,1.42283 -1.97066,1.86194 -3.58598,1.07867 z"
   id="path44"
   style="fill:#d97757;fill-opacity:1;stroke-width:0.296268;stroke:none;stroke-opacity:0" />
<path
   fill="#d97757"
   opacity="1"
   stroke="none"
   d="m 435.22198,267.73496 c -1.14985,0.6208 -2.1802,0.73143 -3.03448,-0.25808 -0.68984,-0.79906 -0.96559,-1.72242 -0.41133,-2.72433 0.58203,-1.05214 1.54,-1.28268 2.65227,-1.16631 1.07856,0.11284 1.45663,0.9957 1.78095,1.78063 0.39037,0.9448 -0.15354,1.69938 -0.98741,2.36809 z"
   id="path45"
   style="fill:#d97757;fill-opacity:1;stroke-width:0.296268;stroke:none;stroke-opacity:0" />
<path
   fill="#d97757"
   opacity="1"
   stroke="none"
   d="m 436.70887,308.40616 c 1.44045,-0.26 2.31502,0.35665 2.7712,1.52867 0.36483,0.93733 -0.0508,1.72293 -0.79197,2.3315 -1.18261,0.97106 -2.56028,0.85925 -3.34699,-0.25534 -0.73382,-1.03967 -0.40665,-2.51925 0.73548,-3.29642 0.1607,-0.10934 0.34382,-0.18571 0.63228,-0.30841 z"
   id="path46"
   style="fill:#d97757;fill-opacity:1;stroke-width:0.296268;stroke:none;stroke-opacity:0" />
<path
   fill="#d97757"
   opacity="1"
   stroke="none"
   d="m 295.95668,324.07845 c -1.17119,0.23869 -2.09554,0.0574 -2.6872,-0.92842 -0.47685,-0.79451 -0.37365,-1.62782 0.0732,-2.38557 0.6721,-1.13976 1.87229,-1.46898 2.90092,-0.86206 1.27588,0.7528 1.58343,1.86873 0.85873,3.13369 -0.24717,0.43145 -0.51707,0.84468 -1.14563,1.04236 z"
   id="path47"
   style="fill:#d97757;fill-opacity:1;stroke-width:0.296268;stroke:none;stroke-opacity:0" />
<path
   fill="#d97757"
   opacity="1"
   stroke="none"
   d="m 359.32369,343.57293 c 1.2547,-0.44093 2.41949,-0.7519 3.24697,0.51215 0.62669,0.95734 0.39046,2.36003 -0.42372,2.92866 -1.09605,0.76545 -2.41567,0.68422 -3.21501,-0.19794 -0.99095,-1.09361 -0.92176,-1.84788 0.39176,-3.24287 z"
   id="path48"
   style="fill:#d97757;fill-opacity:1;stroke-width:0.296268;stroke:none;stroke-opacity:0" />
<path
   fill="#d97757"
   opacity="1"
   stroke="none"
   d="m 407.87821,249.2691 c 1.42266,1.03737 1.79702,2.05758 1.18819,2.97018 -0.85101,1.27559 -2.2967,1.65224 -3.43626,0.92231 -1.09653,-0.70236 -1.10428,-1.85081 -0.71641,-2.74987 0.47886,-1.10994 1.58582,-1.5416 2.96448,-1.14262 z"
   id="path49"
   style="fill:#d97757;fill-opacity:1;stroke-width:0.296268;stroke:none;stroke-opacity:0" />
<path
   fill="#d97757"
   opacity="1"
   stroke="none"
   d="m 393.30716,349.50756 c -0.64317,-1.34947 -0.28436,-2.33407 0.89366,-2.93857 1.12792,-0.57878 2.74935,-0.19707 3.13391,0.74147 0.40757,0.99476 0.45354,2.04161 -0.54012,2.79983 -0.93062,0.71013 -2.48332,0.4628 -3.48745,-0.60273 z"
   id="path50"
   style="fill:#d97757;fill-opacity:1;stroke-width:0.296268;stroke:none;stroke-opacity:0" />
<path
   fill="#d97757"
   opacity="1"
   stroke="none"
   d="m 369.5011,312.20816 c -1.49587,0.14279 -2.26413,-0.67688 -2.53256,-1.85528 -0.22516,-0.98838 0.35304,-1.74634 1.24811,-2.27436 0.90301,-0.53271 1.69317,-0.39225 2.42673,0.25016 1.23591,1.08234 0.70894,3.01922 -1.14228,3.87948 z"
   id="path51"
   style="fill:#d97757;fill-opacity:1;stroke-width:0.296268;stroke:none;stroke-opacity:0" />
<path
   fill="#d97757"
   opacity="1"
   stroke="none"
   d="m 428.60811,297.90033 c 0.98988,0.73822 1.45806,1.61791 1.10248,2.73653 -0.29686,0.93379 -1.11429,1.15468 -1.99284,1.20294 -1.25077,0.0687 -2.25541,-0.72166 -2.39047,-1.88026 -0.10191,-0.87416 0.9398,-2.00727 2.01267,-2.13816 0.37966,-0.0463 0.77318,0.0207 1.26816,0.0789 z"
   id="path52"
   style="fill:#d97757;fill-opacity:1;stroke-width:0.296268;stroke:none;stroke-opacity:0" />
<path
   fill="#d97757"
   opacity="1"
   stroke="none"
   d="m 348.44469,303.25312 c 0.92065,1.85926 0.51253,2.929 -1.23878,3.55473 -1.03226,0.36883 -2.14796,-0.28214 -2.45032,-1.48642 -0.25324,-1.00866 0.0857,-1.86599 0.9311,-2.44781 0.94371,-0.64949 1.85752,-0.48988 2.758,0.3795 z"
   id="path53"
   style="fill:#d97757;fill-opacity:1;stroke-width:0.296268;stroke:none;stroke-opacity:0" />
<path
   fill="#d97757"
   opacity="1"
   stroke="none"
   d="m 348.51323,280.71365 c -0.28167,0.23101 -0.46431,0.41691 -0.68587,0.50666 -1.05598,0.42772 -2.06331,0.36417 -2.80386,-0.57766 -0.66586,-0.8468 -0.54404,-1.78777 0.0863,-2.59914 0.7731,-0.99516 1.9166,-0.80712 2.85679,-0.48107 1.0538,0.36546 1.07346,1.42576 0.93268,2.39804 -0.0335,0.23111 -0.19974,0.44299 -0.38602,0.75317 z"
   id="path54"
   style="fill:#d97757;fill-opacity:1;stroke-width:0.296268;stroke:none;stroke-opacity:0" />
<path
   fill="#d97757"
   opacity="1"
   stroke="none"
   d="m 325.93222,332.4653 c 0.85419,1.02721 1.08191,2.12957 0.25572,3.02896 -0.54786,0.59638 -1.42556,1.08501 -2.40246,0.72739 -1.0869,-0.39788 -1.65923,-1.67794 -1.25511,-2.78762 0.45679,-1.25431 1.8477,-1.69453 3.40185,-0.96873 z"
   id="path55"
   style="fill:#d97757;fill-opacity:1;stroke-width:0.296268;stroke:none;stroke-opacity:0" />
<path
   fill="#d97757"
   opacity="1"
   stroke="none"
   d="m 289.06041,309.54583 c 1.20225,-0.61771 1.99457,-0.13739 2.6355,0.7269 0.71175,0.95981 0.41836,1.85629 -0.28232,2.67408 -0.6885,0.80359 -1.61151,0.74043 -2.43699,0.40329 -0.87879,-0.3589 -1.36386,-1.10728 -1.1929,-2.13209 0.12179,-0.73013 0.61242,-1.20241 1.27671,-1.67218 z"
   id="path56"
   style="fill:#d97757;fill-opacity:1;stroke-width:0.296268;stroke:none;stroke-opacity:0" />
<path
   fill="#d97757"
   opacity="1"
   stroke="none"
   d="m 423.5581,280.80798 c 0.21416,-1.52312 1.0743,-2.15199 2.46385,-2.11076 0.95014,0.0282 1.58994,0.45671 1.78193,1.43646 0.22368,1.14149 0.0379,2.18977 -1.22345,2.47266 -1.64836,0.36968 -2.66152,0.0727 -3.02233,-1.79836 z"
   id="path57"
   style="fill:#d97757;fill-opacity:1;stroke-width:0.296268;stroke:none;stroke-opacity:0" />
<path
   fill="#d97757"
   opacity="1"
   stroke="none"
   d="m 412.81469,236.56023 c -0.14761,-1.24753 0.0243,-2.20965 1.32124,-2.53506 1.33637,-0.33531 2.47062,0.13084 2.78521,1.23677 0.29912,1.05156 -0.0389,1.98275 -1.00415,2.51999 -1.08316,0.60288 -2.25838,0.13625 -3.1023,-1.2217 z"
   id="path58"
   style="fill:#d97757;fill-opacity:1;stroke-width:0.296268;stroke:none;stroke-opacity:0" />
<path
   fill="#d97757"
   opacity="1"
   stroke="none"
   d="m 345.59002,255.16815 c -1.39358,-1.30812 -1.51367,-2.06377 -0.577,-3.03742 0.89319,-0.92843 1.95255,-1.01387 2.85645,-0.20417 0.65035,0.58257 0.9382,1.33749 0.50453,2.12044 -0.56677,1.02326 -1.40185,1.66603 -2.78398,1.12115 z"
   id="path59"
   style="fill:#d97757;fill-opacity:1;stroke-width:0.296268;stroke:none;stroke-opacity:0" />
<path
   fill="#d97757"
   opacity="1"
   stroke="none"
   d="m 408.40417,313.01658 c 1.27523,1.51604 1.24538,2.3906 0.0292,3.29571 -0.771,0.57383 -1.54563,0.61253 -2.32425,0.09 -0.80268,-0.53869 -0.89688,-1.36599 -0.76466,-2.2347 0.14375,-0.94458 0.81108,-1.27041 1.67337,-1.36496 0.44611,-0.0489 0.88169,-0.10682 1.38631,0.21396 z"
   id="path60"
   style="fill:#d97757;fill-opacity:1;stroke-width:0.296268;stroke:none;stroke-opacity:0" />
<path
   fill="#d97757"
   opacity="1"
   stroke="none"
   d="m 440.34923,231.38428 c -1.5988,-0.16964 -2.1896,-0.87168 -2.07065,-2.30236 0.0863,-1.03747 1.01708,-1.7357 2.19852,-1.64917 1.05813,0.0775 1.86632,1.00491 1.78961,2.10158 -0.0772,1.10419 -0.82479,1.58772 -1.91748,1.84995 z"
   id="path61"
   style="fill:#d97757;fill-opacity:1;stroke-width:0.296268;stroke:none;stroke-opacity:0" />
<path
   fill="#d97757"
   opacity="1"
   stroke="none"
   d="m 415.60555,324.79404 c -0.96191,0.78552 -1.899,0.83603 -2.79234,0.18867 -0.85757,-0.62144 -0.82323,-1.56809 -0.50232,-2.4184 0.335,-0.88761 1.18073,-1.16034 2.07015,-1.1165 1.51197,0.0745 2.06932,1.4962 1.22451,3.34623 z"
   id="path62"
   style="fill:#d97757;fill-opacity:1;stroke-width:0.296268;stroke:none;stroke-opacity:0" />
<path
   fill="#d97757"
   opacity="1"
   stroke="none"
   d="m 303.56249,286.89368 c 0.48495,-1.14957 1.14641,-1.85304 2.40864,-1.57487 0.79327,0.1748 1.32122,0.63014 1.47858,1.44658 0.24181,1.25457 -0.51462,2.33986 -1.69697,2.45531 -1.40823,0.1375 -2.13931,-0.59193 -2.19025,-2.32702 z"
   id="path63"
   style="fill:#d97757;fill-opacity:1;stroke-width:0.296268;stroke:none;stroke-opacity:0" />
<path
   fill="#d97757"
   opacity="1"
   stroke="none"
   d="m 371.31688,243.38633 c -0.22113,-1.39754 0.28167,-2.27856 1.55112,-2.51394 0.91582,-0.1698 1.79182,0.13726 2.18056,1.08251 0.41634,1.01238 0.2787,1.94717 -0.79314,2.51563 -1.15919,0.61478 -2.16262,0.27083 -2.93854,-1.0842 z"
   id="path64"
   style="fill:#d97757;fill-opacity:1;stroke-width:0.296268;stroke:none;stroke-opacity:0" />
<path
   fill="#d97757"
   opacity="1"
   stroke="none"
   d="m 354.03273,361.05522 c -1.70053,-0.56033 -1.31925,-1.84688 -0.98641,-2.85666 0.32688,-0.99178 1.30658,-1.33163 2.32366,-0.94402 1.11931,0.42655 1.57347,1.29488 1.2703,2.48108 -0.34102,1.33421 -1.48979,1.22038 -2.60755,1.3196 z"
   id="path65"
   style="fill:#d97757;fill-opacity:1;stroke-width:0.296268;stroke:none;stroke-opacity:0" />
<text
   xml:space="preserve"
   id="text65"
   style="font-style:normal;font-variant:normal;font-weight:normal;font-stretch:normal;font-size:80px;font-family:'Noto Color Emoji';-inkscape-font-specification:'Noto Color Emoji';writing-mode:lr-tb;direction:ltr;white-space:pre;shape-inside:url(#rect65);fill:#d97757;fill-opacity:1;stroke:none;paint-order:fill markers stroke"
   transform="matrix(1.0976718,0,0,1.3512802,-97.77913,223.71936)"><tspan
     x="277.83984"
     y="165.33333"
     id="tspan4"><tspan
       style="font-weight:bold;font-stretch:expanded;font-size:61.3081px;font-family:'Test Söhne Breit';-inkscape-font-specification:'Test Söhne Breit Bold Expanded'"
       id="tspan3">IntelNav</tspan></tspan></text></svg>
